  0
SECTION
  2
HEADER
  9
$ACADVER
  1
AC1024
  9
$ACADMAINTVER
 70
6
  9
$DWGCODEPAGE
  3
ANSI_1252
  9
$LASTSAVEDBY
  1
ezdxf
  9
$INSBASE
 10
0.0
 20
0.0
 30
0.0
  9
$EXTMIN
 10
1e+20
 20
1e+20
 30
1e+20
  9
$EXTMAX
 10
-1e+20
 20
-1e+20
 30
-1e+20
  9
$LIMMIN
 10
0.0
 20
0.0
  9
$LIMMAX
 10
420.0
 20
297.0
  9
$ORTHOMODE
 70
0
  9
$REGENMODE
 70
1
  9
$FILLMODE
 70
1
  9
$QTEXTMODE
 70
0
  9
$MIRRTEXT
 70
1
  9
$LTSCALE
 40
1.0
  9
$ATTMODE
 70
1
  9
$TEXTSIZE
 40
2.5
  9
$TRACEWID
 40
1.0
  9
$TEXTSTYLE
  7
Standard
  9
$CLAYER
  8
0
  9
$CELTYPE
  6
ByLayer
  9
$CECOLOR
 62
256
  9
$CELTSCALE
 40
1.0
  9
$DISPSILH
 70
0
  9
$DIMSCALE
 40
1.0
  9
$DIMASZ
 40
2.5
  9
$DIMEXO
 40
0.625
  9
$DIMDLI
 40
3.75
  9
$DIMRND
 40
0.0
  9
$DIMDLE
 40
0.0
  9
$DIMEXE
 40
1.25
  9
$DIMTP
 40
0.0
  9
$DIMTM
 40
0.0
  9
$DIMTXT
 40
2.5
  9
$DIMCEN
 40
2.5
  9
$DIMTSZ
 40
0.0
  9
$DIMTOL
 70
0
  9
$DIMLIM
 70
0
  9
$DIMTIH
 70
0
  9
$DIMTOH
 70
0
  9
$DIMSE1
 70
0
  9
$DIMSE2
 70
0
  9
$DIMTAD
 70
1
  9
$DIMZIN
 70
8
  9
$DIMBLK
  1

  9
$DIMASO
 70
1
  9
$DIMSHO
 70
1
  9
$DIMPOST
  1

  9
$DIMAPOST
  1

  9
$DIMALT
 70
0
  9
$DIMALTD
 70
3
  9
$DIMALTF
 40
0.03937007874
  9
$DIMLFAC
 40
1.0
  9
$DIMTOFL
 70
1
  9
$DIMTVP
 40
0.0
  9
$DIMTIX
 70
0
  9
$DIMSOXD
 70
0
  9
$DIMSAH
 70
0
  9
$DIMBLK1
  1

  9
$DIMBLK2
  1

  9
$DIMSTYLE
  2
ISO-25
  9
$DIMCLRD
 70
0
  9
$DIMCLRE
 70
0
  9
$DIMCLRT
 70
0
  9
$DIMTFAC
 40
1.0
  9
$DIMGAP
 40
0.625
  9
$DIMJUST
 70
0
  9
$DIMSD1
 70
0
  9
$DIMSD2
 70
0
  9
$DIMTOLJ
 70
0
  9
$DIMTZIN
 70
8
  9
$DIMALTZ
 70
0
  9
$DIMALTTZ
 70
0
  9
$DIMUPT
 70
0
  9
$DIMDEC
 70
2
  9
$DIMTDEC
 70
2
  9
$DIMALTU
 70
2
  9
$DIMALTTD
 70
3
  9
$DIMTXSTY
  7
Standard
  9
$DIMAUNIT
 70
0
  9
$DIMADEC
 70
0
  9
$DIMALTRND
 40
0.0
  9
$DIMAZIN
 70
0
  9
$DIMDSEP
 70
44
  9
$DIMATFIT
 70
3
  9
$DIMFRAC
 70
0
  9
$DIMLDRBLK
  1

  9
$DIMLUNIT
 70
2
  9
$DIMLWD
 70
-2
  9
$DIMLWE
 70
-2
  9
$DIMTMOVE
 70
0
  9
$DIMFXL
 40
1.0
  9
$DIMFXLON
 70
0
  9
$DIMJOGANG
 40
0.785398163397
  9
$DIMTFILL
 70
0
  9
$DIMTFILLCLR
 70
0
  9
$DIMARCSYM
 70
0
  9
$DIMLTYPE
  6

  9
$DIMLTEX1
  6

  9
$DIMLTEX2
  6

  9
$DIMTXTDIRECTION
 70
0
  9
$LUNITS
 70
2
  9
$LUPREC
 70
4
  9
$SKETCHINC
 40
1.0
  9
$FILLETRAD
 40
10.0
  9
$AUNITS
 70
0
  9
$AUPREC
 70
2
  9
$MENU
  1
.
  9
$ELEVATION
 40
0.0
  9
$PELEVATION
 40
0.0
  9
$THICKNESS
 40
0.0
  9
$LIMCHECK
 70
0
  9
$CHAMFERA
 40
0.0
  9
$CHAMFERB
 40
0.0
  9
$CHAMFERC
 40
0.0
  9
$CHAMFERD
 40
0.0
  9
$SKPOLY
 70
0
  9
$TDCREATE
 40
2460980.9547916665
  9
$TDUCREATE
 40
2458532.153996898
  9
$TDUPDATE
 40
2460980.9547916665
  9
$TDUUPDATE
 40
2458532.1544311
  9
$TDINDWG
 40
0.0
  9
$TDUSRTIMER
 40
0.0
  9
$USRTIMER
 70
1
  9
$ANGBASE
 50
0.0
  9
$ANGDIR
 70
0
  9
$PDMODE
 70
0
  9
$PDSIZE
 40
0.0
  9
$PLINEWID
 40
0.0
  9
$SPLFRAME
 70
0
  9
$SPLINETYPE
 70
6
  9
$SPLINESEGS
 70
8
  9
$HANDSEED
  5
3F
  9
$SURFTAB1
 70
6
  9
$SURFTAB2
 70
6
  9
$SURFTYPE
 70
6
  9
$SURFU
 70
6
  9
$SURFV
 70
6
  9
$UCSBASE
  2

  9
$UCSNAME
  2

  9
$UCSORG
 10
0.0
 20
0.0
 30
0.0
  9
$UCSXDIR
 10
1.0
 20
0.0
 30
0.0
  9
$UCSYDIR
 10
0.0
 20
1.0
 30
0.0
  9
$UCSORTHOREF
  2

  9
$UCSORTHOVIEW
 70
0
  9
$UCSORGTOP
 10
0.0
 20
0.0
 30
0.0
  9
$UCSORGBOTTOM
 10
0.0
 20
0.0
 30
0.0
  9
$UCSORGLEFT
 10
0.0
 20
0.0
 30
0.0
  9
$UCSORGRIGHT
 10
0.0
 20
0.0
 30
0.0
  9
$UCSORGFRONT
 10
0.0
 20
0.0
 30
0.0
  9
$UCSORGBACK
 10
0.0
 20
0.0
 30
0.0
  9
$PUCSBASE
  2

  9
$PUCSNAME
  2

  9
$PUCSORG
 10
0.0
 20
0.0
 30
0.0
  9
$PUCSXDIR
 10
1.0
 20
0.0
 30
0.0
  9
$PUCSYDIR
 10
0.0
 20
1.0
 30
0.0
  9
$PUCSORTHOREF
  2

  9
$PUCSORTHOVIEW
 70
0
  9
$PUCSORGTOP
 10
0.0
 20
0.0
 30
0.0
  9
$PUCSORGBOTTOM
 10
0.0
 20
0.0
 30
0.0
  9
$PUCSORGLEFT
 10
0.0
 20
0.0
 30
0.0
  9
$PUCSORGRIGHT
 10
0.0
 20
0.0
 30
0.0
  9
$PUCSORGFRONT
 10
0.0
 20
0.0
 30
0.0
  9
$PUCSORGBACK
 10
0.0
 20
0.0
 30
0.0
  9
$USERI1
 70
0
  9
$USERI2
 70
0
  9
$USERI3
 70
0
  9
$USERI4
 70
0
  9
$USERI5
 70
0
  9
$USERR1
 40
0.0
  9
$USERR2
 40
0.0
  9
$USERR3
 40
0.0
  9
$USERR4
 40
0.0
  9
$USERR5
 40
0.0
  9
$WORLDVIEW
 70
1
  9
$SHADEDGE
 70
3
  9
$SHADEDIF
 70
70
  9
$TILEMODE
 70
1
  9
$MAXACTVP
 70
64
  9
$PINSBASE
 10
0.0
 20
0.0
 30
0.0
  9
$PLIMCHECK
 70
0
  9
$PEXTMIN
 10
1e+20
 20
1e+20
 30
1e+20
  9
$PEXTMAX
 10
-1e+20
 20
-1e+20
 30
-1e+20
  9
$PLIMMIN
 10
0.0
 20
0.0
  9
$PLIMMAX
 10
420.0
 20
297.0
  9
$UNITMODE
 70
0
  9
$VISRETAIN
 70
1
  9
$PLINEGEN
 70
0
  9
$PSLTSCALE
 70
1
  9
$TREEDEPTH
 70
3020
  9
$CMLSTYLE
  2
Standard
  9
$CMLJUST
 70
0
  9
$CMLSCALE
 40
20.0
  9
$PROXYGRAPHICS
 70
1
  9
$MEASUREMENT
 70
1
  9
$CELWEIGHT
370
-1
  9
$ENDCAPS
280
0
  9
$JOINSTYLE
280
0
  9
$LWDISPLAY
290
0
  9
$INSUNITS
 70
6
  9
$HYPERLINKBASE
  1

  9
$STYLESHEET
  1

  9
$XEDIT
290
1
  9
$CEPSNTYPE
380
0
  9
$PSTYLEMODE
290
1
  9
$FINGERPRINTGUID
  2
{753E4545-C593-402E-8C96-44F5F412BE4E}
  9
$VERSIONGUID
  2
{16A0F17F-BC5C-4911-9EC2-BBA61F7376CB}
  9
$EXTNAMES
290
1
  9
$PSVPSCALE
 40
0.0
  9
$OLESTARTUP
290
0
  9
$SORTENTS
280
127
  9
$INDEXCTL
280
0
  9
$HIDETEXT
280
1
  9
$XCLIPFRAME
280
1
  9
$HALOGAP
280
0
  9
$OBSCOLOR
 70
257
  9
$OBSLTYPE
280
0
  9
$INTERSECTIONDISPLAY
280
0
  9
$INTERSECTIONCOLOR
 70
257
  9
$DIMASSOC
280
2
  9
$PROJECTNAME
  1

  9
$CAMERADISPLAY
290
0
  9
$LENSLENGTH
 40
50.0
  9
$CAMERAHEIGHT
 40
0.0
  9
$STEPSPERSEC
 40
24.0
  9
$STEPSIZE
 40
100.0
  9
$3DDWFPREC
 40
2.0
  9
$PSOLWIDTH
 40
0.005
  9
$PSOLHEIGHT
 40
0.08
  9
$LOFTANG1
 40
1.570796326795
  9
$LOFTANG2
 40
1.570796326795
  9
$LOFTMAG1
 40
0.0
  9
$LOFTMAG2
 40
0.0
  9
$LOFTPARAM
 70
7
  9
$LOFTNORMALS
280
1
  9
$LATITUDE
 40
37.795
  9
$LONGITUDE
 40
-122.394
  9
$NORTHDIRECTION
 40
0.0
  9
$TIMEZONE
 70
-8000
  9
$LIGHTGLYPHDISPLAY
280
1
  9
$TILEMODELIGHTSYNCH
280
1
  9
$CMATERIAL
347
20
  9
$SOLIDHIST
280
0
  9
$SHOWHIST
280
1
  9
$DWFFRAME
280
2
  9
$DGNFRAME
280
2
  9
$REALWORLDSCALE
290
1
  9
$INTERFERECOLOR
 62
256
  9
$CSHADOW
280
0
  9
$SHADOWPLANELOCATION
 40
0.0
  0
ENDSEC
  0
SECTION
  2
CLASSES
  0
CLASS
  1
ACDBDICTIONARYWDFLT
  2
AcDbDictionaryWithDefault
  3
ObjectDBX Classes
 90
0
 91
0
280
0
281
0
  0
CLASS
  1
SUN
  2
AcDbSun
  3
SCENEOE
 90
1153
 91
0
280
0
281
0
  0
CLASS
  1
VISUALSTYLE
  2
AcDbVisualStyle
  3
ObjectDBX Classes
 90
4095
 91
0
280
0
281
0
  0
CLASS
  1
MATERIAL
  2
AcDbMaterial
  3
ObjectDBX Classes
 90
1153
 91
0
280
0
281
0
  0
CLASS
  1
SCALE
  2
AcDbScale
  3
ObjectDBX Classes
 90
1153
 91
0
280
0
281
0
  0
CLASS
  1
TABLESTYLE
  2
AcDbTableStyle
  3
ObjectDBX Classes
 90
4095
 91
0
280
0
281
0
  0
CLASS
  1
MLEADERSTYLE
  2
AcDbMLeaderStyle
  3
ACDB_MLEADERSTYLE_CLASS
 90
4095
 91
0
280
0
281
0
  0
CLASS
  1
DICTIONARYVAR
  2
AcDbDictionaryVar
  3
ObjectDBX Classes
 90
0
 91
0
280
0
281
0
  0
CLASS
  1
CELLSTYLEMAP
  2
AcDbCellStyleMap
  3
ObjectDBX Classes
 90
1152
 91
0
280
0
281
0
  0
CLASS
  1
MENTALRAYRENDERSETTINGS
  2
AcDbMentalRayRenderSettings
  3
SCENEOE
 90
1024
 91
0
280
0
281
0
  0
CLASS
  1
ACDBDETAILVIEWSTYLE
  2
AcDbDetailViewStyle
  3
ObjectDBX Classes
 90
1025
 91
0
280
0
281
0
  0
CLASS
  1
ACDBSECTIONVIEWSTYLE
  2
AcDbSectionViewStyle
  3
ObjectDBX Classes
 90
1025
 91
0
280
0
281
0
  0
CLASS
  1
RASTERVARIABLES
  2
AcDbRasterVariables
  3
ISM
 90
0
 91
0
280
0
281
0
  0
CLASS
  1
ACDBPLACEHOLDER
  2
AcDbPlaceHolder
  3
ObjectDBX Classes
 90
0
 91
0
280
0
281
0
  0
CLASS
  1
LAYOUT
  2
AcDbLayout
  3
ObjectDBX Classes
 90
0
 91
0
280
0
281
0
  0
ENDSEC
  0
SECTION
  2
TABLES
  0
TABLE
  2
VPORT
  5
8
330
0
100
AcDbSymbolTable
 70
1
  0
VPORT
  5
23
330
8
100
AcDbSymbolTableRecord
100
AcDbViewportTableRecord
  2
*Active
 70
0
 10
0.0
 20
0.0
 11
1.0
 21
1.0
 12
0.0
 22
0.0
 13
0.0
 23
0.0
 14
0.5
 24
0.5
 15
0.5
 25
0.5
 16
0.0
 26
0.0
 36
1.0
 17
0.0
 27
0.0
 37
0.0
 40
1000.0
 41
1.34
 42
50.0
 43
0.0
 44
0.0
 50
0.0
 51
0.0
 71
0
 72
1000
 73
1
 74
3
 75
0
 76
0
 77
0
 78
0
281
0
 65
0
146
0.0
  0
ENDTAB
  0
TABLE
  2
LTYPE
  5
2
330
0
100
AcDbSymbolTable
 70
3
  0
LTYPE
  5
24
330
2
100
AcDbSymbolTableRecord
100
AcDbLinetypeTableRecord
  2
ByBlock
 70
0
  3

 72
65
 73
0
 40
0.0
  0
LTYPE
  5
25
330
2
100
AcDbSymbolTableRecord
100
AcDbLinetypeTableRecord
  2
ByLayer
 70
0
  3

 72
65
 73
0
 40
0.0
  0
LTYPE
  5
26
330
2
100
AcDbSymbolTableRecord
100
AcDbLinetypeTableRecord
  2
Continuous
 70
0
  3

 72
65
 73
0
 40
0.0
  0
ENDTAB
  0
TABLE
  2
LAYER
  5
1
330
0
100
AcDbSymbolTable
 70
2
  0
LAYER
  5
27
330
1
100
AcDbSymbolTableRecord
100
AcDbLayerTableRecord
  2
0
 70
0
 62
7
  6
Continuous
370
-3
390
13
347
21
  0
LAYER
  5
28
330
1
100
AcDbSymbolTableRecord
100
AcDbLayerTableRecord
  2
Defpoints
 70
0
 62
7
  6
Continuous
290
0
370
-3
390
13
347
21
  0
ENDTAB
  0
TABLE
  2
STYLE
  5
5
330
0
100
AcDbSymbolTable
 70
1
  0
STYLE
  5
29
330
5
100
AcDbSymbolTableRecord
100
AcDbTextStyleTableRecord
  2
Standard
 70
0
 40
0.0
 41
1.0
 50
0.0
 71
0
 42
2.5
  3
txt
  4

  0
ENDTAB
  0
TABLE
  2
VIEW
  5
7
330
0
100
AcDbSymbolTable
 70
0
  0
ENDTAB
  0
TABLE
  2
UCS
  5
6
330
0
100
AcDbSymbolTable
 70
0
  0
ENDTAB
  0
TABLE
  2
APPID
  5
3
330
0
100
AcDbSymbolTable
 70
3
  0
APPID
  5
2A
330
3
100
AcDbSymbolTableRecord
100
AcDbRegAppTableRecord
  2
ACAD
 70
0
  0
APPID
  5
3C
330
3
100
AcDbSymbolTableRecord
100
AcDbRegAppTableRecord
  2
HATCHBACKGROUNDCOLOR
 70
0
  0
APPID
  5
3D
330
3
100
AcDbSymbolTableRecord
100
AcDbRegAppTableRecord
  2
EZDXF
 70
0
  0
ENDTAB
  0
TABLE
  2
DIMSTYLE
  5
4
330
0
100
AcDbSymbolTable
 70
1
100
AcDbDimStyleTable
  0
DIMSTYLE
105
2B
330
4
100
AcDbSymbolTableRecord
100
AcDbDimStyleTableRecord
  2
Standard
 70
0
 40
1.0
 41
2.5
 42
0.625
 43
3.75
 44
1.25
 45
0.0
 46
0.0
 47
0.0
 48
0.0
 49
2.5
140
2.5
141
2.5
142
0.0
143
0.03937007874
144
1.0
145
0.0
146
1.0
147
0.625
148
0.0
 69
0
 70
0
 71
0
 72
0
 73
0
 74
0
 75
0
 76
0
 77
1
 78
8
 79
3
170
0
171
3
172
1
173
0
174
0
175
0
176
0
177
0
178
0
179
2
271
2
272
2
273
2
274
3
275
0
276
0
277
2
278
44
279
0
280
0
281
0
282
0
283
0
284
8
285
0
286
0
288
0
289
3
290
0
371
-2
372
-2
  0
ENDTAB
  0
TABLE
  2
BLOCK_RECORD
  5
9
330
0
100
AcDbSymbolTable
 70
2
  0
BLOCK_RECORD
  5
17
330
9
100
AcDbSymbolTableRecord
100
AcDbBlockTableRecord
  2
*Model_Space
340
1A
 70
0
280
1
281
0
  0
BLOCK_RECORD
  5
1B
330
9
100
AcDbSymbolTableRecord
100
AcDbBlockTableRecord
  2
*Paper_Space
340
1E
 70
0
280
1
281
0
  0
ENDTAB
  0
ENDSEC
  0
SECTION
  2
BLOCKS
  0
BLOCK
  5
18
330
17
100
AcDbEntity
  8
0
100
AcDbBlockBegin
  2
*Model_Space
 70
0
 10
0.0
 20
0.0
 30
0.0
  3
*Model_Space
  1

  0
ENDBLK
  5
19
330
17
100
AcDbEntity
  8
0
100
AcDbBlockEnd
  0
BLOCK
  5
1C
330
1B
100
AcDbEntity
  8
0
100
AcDbBlockBegin
  2
*Paper_Space
 70
0
 10
0.0
 20
0.0
 30
0.0
  3
*Paper_Space
  1

  0
ENDBLK
  5
1D
330
1B
100
AcDbEntity
  8
0
100
AcDbBlockEnd
  0
ENDSEC
  0
SECTION
  2
ENTITIES
  0
SPLINE
  5
2F
330
17
100
AcDbEntity
  8
Cycloidal_Ring_Gear
 62
5
100
AcDbSpline
 70
0
 71
3
 72
1005
 73
1001
 74
0
 40
0.0
 40
0.0
 40
0.0
 40
0.0
 40
0.002827919426419566
 40
0.004238392963116194
 40
0.0056447257468400696
 40
0.007045606452085309
 40
0.008439778664263455
 40
0.009826049774695022
 40
0.011203297192639464
 40
0.012570471798416884
 40
0.013926598728271997
 40
0.015270775724157682
 40
0.016602169391276296
 40
0.017920009778931913
 40
0.01922358373628234
 40
0.02051222749766022
 40
0.021785318928294554
 40
0.02304226981767486
 40
0.024282518551744816
 40
0.025505523433228393
 40
0.02671075685719067
 40
0.027897700490590233
 40
0.029065841552914053
 40
0.030214670251604944
 40
0.03134367839149233
 40
0.03245235915164042
 40
0.03354020800519972
 40
0.03460672474689652
 40
0.03565141658740856
 40
0.03667380227264224
 40
0.03767341718738842
 40
0.0386498194055351
 40
0.0396025966515072
 40
0.04053137413846236
 40
0.041435823246587504
 40
0.04231567099824468
 40
0.04317071027439941
 40
0.04400081069754984
 40
0.04480593007930271
 40
0.045586126295212234
 40
0.04634156940544775
 40
0.047072553787978484
 40
0.04777950999293078
 40
0.04846301596546266
 40
0.049123807224145215
 40
0.049762785528065366
 40
0.05038102552553275
 40
0.05097977885807867
 40
0.05156047520319327
 40
0.05212471978492089
 40
0.05267428696790502
 40
0.05321110967929816
 40
0.05373726457122562
 40
0.054254953036205776
 40
0.054766478405969946
 40
0.05527421988318297
 40
0.05578060395589233
 40
0.05628807420641525
 40
0.05679906053288661
 40
0.057315948841271724
 40
0.05784105223391753
 40
0.058376584621185966
 40
0.058924637526227286
 40
0.05948716065594812
 40
0.060065946593255565
 40
0.06066261974658634
 40
0.06127862949024592
 40
0.06191524725682215
 40
0.06257356720949904
 40
0.06325451003092142
 40
0.0639588293152468
 40
0.0646871200365871
 40
0.06543982858340239
 40
0.06621726388677948
 40
0.06701960922316982
 40
0.06784693433208668
 40
0.06869920755070191
 40
0.06957630772584406
 40
0.0704780357165655
 40
0.07140412534541553
 40
0.07235425369304152
 40
0.07332805065873142
 40
0.07432510772955638
 40
0.07534498591379857
 40
0.07638722280151951
 40
0.0774513387177296
 40
0.07853684193303215
 40
0.07964323289423322
 40
0.08077000743465962
 40
0.08191665892225689
 40
0.08308267930439968
 40
0.08426755901320121
 40
0.08547078570537375
 40
0.0866918418276971
 40
0.0879302010240199
 40
0.08918532343322848
 40
0.09045664997002685
 40
0.09174359573117476
 40
0.0930455427275495
 40
0.09436183220435138
 40
0.09569175687393894
 40
0.09703455344279524
 40
0.09838939585945178
 40
0.09975538973659602
 40
0.10113156840082503
 40
0.10251689099137233
 40
0.10391024296057982
 40
0.10531043922321472
 40
0.10671623006250854
 40
0.10812630973629511
 40
0.10953932754955074
 40
0.11095390098601365
 40
0.1123686303388532
 40
0.1137821141650943
 40
0.1151929648237715
 40
0.11659982335115678
 40
0.11800137297864857
 40
0.11939635070391133
 40
0.12078355647158624
 40
0.12216185969038605
 40
0.12353020299116557
 40
0.12488760329909065
 40
0.12623315043874922
 40
0.12756600360464795
 40
0.12888538610641867
 40
0.13019057883803867
 40
0.13148091292684594
 40
0.13275576199694025
 40
0.13401453443980058
 40
0.1352566660299352
 40
0.13648161316184884
 40
0.13768884692221384
 40
0.13887784815219606
 40
0.14004810360237754
 40
0.1411991032383709
 40
0.1423303387197312
 40
0.14344130304803399
 40
0.14453149136132631
 40
0.1456004028404999
 40
0.1466475436872036
 40
0.1476724311312861
 40
0.14867459842699743
 40
0.14965360079980963
 40
0.15060902230830597
 40
0.15154048358669647
 40
0.1524476504317401
 40
0.15333024319181546
 40
0.15418804690426058
 40
0.1550209221087098
 40
0.15582881623799097
 40
0.15661177545357333
 40
0.15736995674943205
 40
0.15810364009712732
 40
0.1588132403474263
 40
0.15949931854266824
 40
0.16016259223335724
 40
0.1608039443376437
 40
0.1614244300401595
 40
0.16202528120473655
 40
0.16260790778171286
 40
0.16317389573191957
 40
0.16372500107123597
 40
0.1642631397637693
 40
0.16479037335590685
 40
0.16530889044026648
 40
0.16582098425536618
 40
0.1663290269467282
 40
0.16683544121853908
 40
0.16734267027205055
 40
0.16785314704026014
 40
0.1683692637757876
 40
0.16889334302502504
 40
0.16942761092923214
 40
0.1699741736423586
 40
0.17053499746194464
 40
0.17111189305280708
 40
0.17170650392333583
 40
0.17232029910913962
 40
0.17295456984263938
 40
0.1736104298491962
 40
0.17428881881446642
 40
0.17499050851326414
 40
0.17571611107301843
 40
0.17646608885833612
 40
0.1772407654995
 40
0.17804033763914717
 40
0.17886488703080242
 40
0.1797143926844532
 40
0.1805887428134084
 40
0.18148774639011409
 40
0.1824111441644782
 40
0.18335861903569728
 40
0.18432980569749485
 40
0.18532429949756887
 40
0.18634166446579795
 40
0.18738144047351465
 40
0.18844314948920052
 40
0.18952630089565523
 40
0.19063039583144106
 40
0.1917549305166231
 40
0.19289939852096455
 40
0.1940632919332438
 40
0.19524610139469728
 40
0.19644731496919146
 40
0.19766641583892047
 40
0.1989028788383745
 40
0.20015616587185067
 40
0.20142572030120587
 40
0.20271096044047585
 40
0.2040112723510436
 40
0.20532600219269692
 40
0.20665444844829933
 40
0.2079958543976897
 40
0.20934940126340063
 40
0.21071420247965247
 40
0.21208929953955866
 40
0.2134736598471892
 40
0.21486617693673563
 40
0.2162656733193817
 40
0.21767090608266548
 40
0.21908057520487528
 40
0.22049333437060084
 40
0.22190780389869635
 40
0.2233225852380254
 40
0.2247362763662027
 40
0.2261474873557144
 40
0.22755485535854064
 40
0.22895705830629193
 40
0.23035282672250637
 40
0.2317409531856993
 40
0.2331202991503552
 40
0.23448979901087358
 40
0.23584846146377764
 40
0.23719536837229513
 40
0.23852967145490214
 40
0.23985058720046432
 40
0.24115739045658122
 40
0.24244940714768173
 40
0.24372600656096777
 40
0.24498659359846198
 40
0.24623060133952643
 40
0.2474574841971068
 40
0.24866671188842088
 40
0.24985776438131385
 40
0.25103012792417695
 40
0.25218329222201924
 40
0.25331674878480054
 40
0.25442999044645187
 40
0.2555225120334937
 40
0.25659381214979066
 40
0.25764339603747877
 40
0.25867077947206957
 40
0.25967549365072556
 40
0.2606570910352521
 40
0.26161515211401365
 40
0.2625492930483261
 40
0.2634591741674889
 40
0.26434450927112174
 40
0.2652050756865323
 40
0.26604072501125314
 40
0.266851394445628
 40
0.26763711858670136
 40
0.26839804151248225
 40
0.26913442893540684
 40
0.2698466801469559
 40
0.27053533941448543
 40
0.2712011064303234
 40
0.2718448453573923
 40
0.27246759197165643
 40
0.273070558377114
 40
0.2736551347717291
 40
0.2742228877798776
 40
0.274775554944013
 40
0.2753150350877523
 40
0.2758433744225943
 40
0.27636274846417275
 40
0.2768754400392823
 40
0.27738381388540506
 40
0.277890288550701
 40
0.2783973064744538
 40
0.2789073032480062
 40
0.27942267711132474
 40
0.27994575972442237
 40
0.2804787891677092
 40
0.2810238859802506
 40
0.28158303285529096
 40
0.2821580583973389
 40
0.28275062512464233
 40
0.28336222169336794
 40
0.2839941591398942
 40
0.28464757079508907
 40
0.28532341542382483
 40
0.28602248308411515
 40
0.2867454031792246
 40
0.28749265418649494
 40
0.288264574580798
 40
0.2890613745206305
 40
0.28988314792372316
 40
0.29072988462056537
 40
0.29160148233375843
 40
0.29249775828528046
 40
0.29341846028052554
 40
0.2943632771563755
 40
0.2953318485104108
 40
0.2963237736501074
 40
0.29733861971536146
 40
0.2983759289360425
 40
0.29943522498978487
 40
0.30051601842522363
 40
0.3016178111137784
 40
0.30274009969029764
 40
0.30388237794083667
 40
0.30504413809601894
 40
0.30622487099226814
 40
0.307424065072145
 40
0.3086412042104227
 40
0.3098757643755721
 40
0.31112720916787623
 40
0.3123949843158354
 40
0.31367851126155344
 40
0.3149771800221644
 40
0.31629034157566865
 40
0.3176173000820878
 40
0.31895730530953376
 40
0.3203095456833206
 40
0.321673142407494
 40
0.3230471451147928
 40
0.3244305294765596
 40
0.3258221971438517
 40
0.32722097829343344
 40
0.3286256369200138
 40
0.33003487885625843
 40
0.3314473623265331
 40
0.3328617106644504
 40
0.3342765266654313
 40
0.3356904079206238
 40
0.33710196240168266
 40
0.33850982354605247
 40
0.33991266413185917
 40
0.341309208325641
 40
0.3426982414241131
 40
0.34407861697764447
 40
0.34544926116078506
 40
0.34680917442706616
 40
0.348157430637059
 40
0.34949317396997454
 40
0.3508156140142883
 40
0.3521240194808739
 40
0.3534177109956093
 40
0.3546960534127939
 40
0.3559584480528856
 40
0.35720432521538525
 40
0.35843313725708065
 40
0.359644352463236
 40
0.3608374498793
 40
0.36201191521658455
 40
0.36316723789910665
 40
0.3643029092813154
 40
0.3654184220377866
 40
0.3665132707055895
 40
0.36758695334692454
 40
0.36863897429254483
 40
0.3696688479240126
 40
0.37067610345357493
 40
0.3716602906628855
 40
0.37262098656452575
 40
0.3735578029518356
 40
0.3744703948015509
 40
0.37535846948876755
 40
0.37622179676348194
 40
0.37706021942116336
 40
0.3778736645754473
 40
0.3786621554083658
 40
0.37942582323228663
 40
0.38016491964833055
 40
0.38087982852980046
 40
0.3815710774985353
 40
0.38223934850087143
 40
0.3828854870332181
 40
0.38351050952161697
 40
0.3841156083325312
 40
0.3847021538913841
 40
0.38527169341838985
 40
0.38582594586373664
 40
0.38636679273896507
 40
0.3868962646971446
 40
0.38741652390489467
 40
0.38792984246297646
 40
0.38843857735301723
 40
0.38894514259674784
 40
0.38945197949090743
 40
0.3899615259075331
 40
0.39047618571211357
 40
0.3909982993441255
 40
0.3915301165266729
 40
0.39207377193285275
 40
0.39263126445089863
 40
0.3932044404769214
 40
0.3937949814432413
 40
0.39440439558054896
 40
0.3950340137285816
 40
0.39568498886299247
 40
0.39635829890074437
 40
0.3970547522829871
 40
0.39777499580942144
 40
0.3985195242054218
 40
0.3992886909351012
 40
0.40008271982221405
 40
0.4009017170989957
 40
0.401745683564531
 40
0.40261452659416547
 40
0.40350807179636283
 40
0.40442607416107484
 40
0.4053682285830436
 40
0.40633417967423696
 40
0.40732353080222533
 40
0.4083358523065564
 40
0.40937068885416317
 40
0.41042756589882373
 40
0.411505995210009
 40
0.41260547943451636
 40
0.4137255156514985
 40
0.41486559787930954
 40
0.4160252184924385
 40
0.4172038685101695
 40
0.4184010367269103
 40
0.41961620766875624
 40
0.420848858382992
 40
0.42209845409780916
 40
0.4233644428289691
 40
0.42464624905826154
 40
0.4259432666642527
 40
0.42725485134674357
 40
0.4285803128489816
 40
0.4299189073410781
 40
0.43126983037808725
 40
0.43263221087973264
 40
0.4340051065884888
 40
0.4353875014419609
 40
0.4367783052393569
 40
0.4381763558883744
 40
0.43958042439010275
 40
0.4409892225622563
 40
0.442401413326526
 40
0.4438156232091451
 40
0.4452304565421498
 40
0.4466445107233971
 40
0.4480563918106776
 40
0.4494647296988286
 40
0.4508681921617192
 40
0.4522654971294753
 40
0.4536554227050919
 40
0.45503681458873935
 40
0.456408590755351
 40
0.4577697434043814
 40
0.45911933835521007
 40
0.4604565121867176
 40
0.46178046750890556
 40
0.4630904668064902
 40
0.46438582531149036
 40
0.4656659033491151
 40
0.46693009856552864
 40
0.46817783839468613
 40
0.469408573061384
 40
0.4706217693550121
 40
0.47181690534800863
 40
0.4729934661781182
 40
0.4741509409663628
 40
0.47528882090416663
 40
0.47640659851347966
 40
0.47750376806248723
 40
0.4785798271056383
 40
0.4796342791090393
 40
0.4806666371193536
 40
0.48167642843479763
 40
0.48266320023914927
 40
0.4836265261624501
 40
0.4845660137338408
 40
0.48548131269130934
 40
0.4863721241086624
 40
0.487238210290413
 40
0.4880794053692616
 40
0.48889562651736745
 40
0.48968688565088075
 40
0.4904533014669069
 40
0.49119511160353235
 40
0.49191268465796567
 40
0.49260653173755486
 40
0.49327731715704676
 40
0.4939258678379781
 40
0.4945531809188654
 40
0.495160429055296
 40
0.4957489628849753
 40
0.4963203101617413
 40
0.49687617113047816
 40
0.4974184098249331
 40
0.4979490411218568
 40
0.4984702135719552
 40
0.4989841882399547
 40
0.4994933140070304
 40
0.4999999999999995
 40
0.5005066859929685
 40
0.5010158117600443
 40
0.5015297864280438
 40
0.5020509588781422
 40
0.5025815901750659
 40
0.5031238288695208
 40
0.5036796898382577
 40
0.5042510371150236
 40
0.5048395709447029
 40
0.5054468190811335
 40
0.5060741321620209
 40
0.5067226828429522
 40
0.5073934682624441
 40
0.5080873153420333
 40
0.5088048883964668
 40
0.5095466985330921
 40
0.5103131143491182
 40
0.5111043734826315
 40
0.5119205946307374
 40
0.512761789709586
 40
0.5136278758913366
 40
0.5145186873086897
 40
0.5154339862661582
 40
0.5163734738375488
 40
0.5173367997608497
 40
0.5183235715652013
 40
0.5193333628806454
 40
0.5203657208909597
 40
0.5214201728943606
 40
0.5224962319375117
 40
0.5235934014865192
 40
0.5247111790958323
 40
0.5258490590336361
 40
0.5270065338218807
 40
0.5281830946519903
 40
0.5293782306449868
 40
0.5305914269386149
 40
0.5318221616053128
 40
0.5330699014344703
 40
0.5343340966508839
 40
0.5356141746885087
 40
0.5369095331935088
 40
0.5382195324910933
 40
0.5395434878132813
 40
0.5408806616447889
 40
0.5422302565956175
 40
0.543591409244648
 40
0.5449631854112597
 40
0.5463445772949072
 40
0.5477345028705237
 40
0.5491318078382799
 40
0.5505352703011703
 40
0.5519436081893214
 40
0.5533554892766019
 40
0.5547695434578492
 40
0.556184376790854
 40
0.5575985866734731
 40
0.5590107774377427
 40
0.5604195756098963
 40
0.5618236441116247
 40
0.5632216947606421
 40
0.5646124985580381
 40
0.5659948934115102
 40
0.5673677891202664
 40
0.5687301696219117
 40
0.5700810926589209
 40
0.5714196871510174
 40
0.5727451486532554
 40
0.5740567333357462
 40
0.5753537509417374
 40
0.5766355571710298
 40
0.5779015459021898
 40
0.579151141617007
 40
0.5803837923312426
 40
0.5815989632730885
 40
0.5827961314898293
 40
0.5839747815075603
 40
0.5851344021206892
 40
0.5862744843485003
 40
0.5873945205654825
 40
0.5884940047899898
 40
0.5895724341011751
 40
0.5906293111458357
 40
0.5916641476934424
 40
0.5926764691977735
 40
0.5936658203257619
 40
0.5946317714169552
 40
0.595573925838924
 40
0.596491928203636
 40
0.5973854734058334
 40
0.5982543164354679
 40
0.5990982829010032
 40
0.5999172801777849
 40
0.6007113090648977
 40
0.6014804757945771
 40
0.6022250041905775
 40
0.6029452477170119
 40
0.6036417010992545
 40
0.6043150111370065
 40
0.6049659862714174
 40
0.60559560441945
 40
0.6062050185567576
 40
0.6067955595230775
 40
0.6073687355491002
 40
0.6079262280671461
 40
0.6084698834733261
 40
0.6090017006558736
 40
0.6095238142878855
 40
0.6100384740924659
 40
0.6105480205090916
 40
0.6110548574032512
 40
0.6115614226469818
 40
0.6120701575370225
 40
0.6125834760951044
 40
0.6131037353028544
 40
0.6136332072610339
 40
0.6141740541362624
 40
0.6147283065816092
 40
0.6152978461086148
 40
0.6158843916674678
 40
0.616489490478382
 40
0.6171145129667809
 40
0.6177606514991276
 40
0.6184289225014638
 40
0.6191201714701986
 40
0.6198350803516685
 40
0.6205741767677124
 40
0.6213378445916333
 40
0.6221263354245519
 40
0.6229397805788358
 40
0.6237782032365172
 40
0.6246415305112315
 40
0.6255296051984481
 40
0.6264421970481635
 40
0.6273790134354734
 40
0.6283397093371137
 40
0.6293238965464242
 40
0.6303311520759866
 40
0.6313610257074542
 40
0.6324130466530745
 40
0.6334867292944096
 40
0.6345815779622125
 40
0.6356970907186836
 40
0.6368327621008923
 40
0.6379880847834145
 40
0.639162550120699
 40
0.6403556475367631
 40
0.6415668627429184
 40
0.6427956747846141
 40
0.6440415519471135
 40
0.6453039465872054
 40
0.6465822890043899
 40
0.6478759805191252
 40
0.6491843859857108
 40
0.6505068260300245
 40
0.6518425693629402
 40
0.653190825572933
 40
0.6545507388392141
 40
0.6559213830223547
 40
0.6573017585758862
 40
0.6586907916743583
 40
0.6600873358681402
 40
0.6614901764539467
 40
0.6628980375983164
 40
0.6643095920793753
 40
0.6657234733345678
 40
0.6671382893355489
 40
0.6685526376734661
 40
0.669965121143741
 40
0.6713743630799854
 40
0.6727790217065659
 40
0.6741778028561475
 40
0.6755694705234395
 40
0.6769528548852064
 40
0.6783268575925051
 40
0.6796904543166786
 40
0.6810426946904654
 40
0.6823826999179115
 40
0.6837096584243306
 40
0.685022819977835
 40
0.6863214887384459
 40
0.6876050156841638
 40
0.6888727908321232
 40
0.6901242356244272
 40
0.6913587957895767
 40
0.6925759349278543
 40
0.6937751290077312
 40
0.6949558619039801
 40
0.6961176220591624
 40
0.6972599003097013
 40
0.6983821888862206
 40
0.6994839815747753
 40
0.7005647750102142
 40
0.7016240710639564
 40
0.7026613802846374
 40
0.7036762263498916
 40
0.7046681514895883
 40
0.7056367228436237
 40
0.7065815397194736
 40
0.7075022417147188
 40
0.7083985176662407
 40
0.7092701153794339
 40
0.7101168520762761
 40
0.7109386254793686
 40
0.7117354254192011
 40
0.7125073458135042
 40
0.7132545968207746
 40
0.7139775169158841
 40
0.7146765845761744
 40
0.7153524292049103
 40
0.716005840860105
 40
0.7166377783066313
 40
0.7172493748753568
 40
0.7178419416026603
 40
0.7184169671447082
 40
0.7189761140197486
 40
0.7195212108322899
 40
0.7200542402755769
 40
0.7205773228886744
 40
0.721092696751993
 40
0.7216026935255454
 40
0.7221097114492983
 40
0.7226161861145941
 40
0.7231245599607169
 40
0.7236372515358264
 40
0.7241566255774048
 40
0.7246849649122469
 40
0.7252244450559862
 40
0.7257771122201216
 40
0.7263448652282701
 40
0.7269294416228852
 40
0.7275324080283427
 40
0.7281551546426068
 40
0.7287988935696758
 40
0.7294646605855136
 40
0.7301533198530433
 40
0.7308655710645923
 40
0.7316019584875169
 40
0.7323628814132978
 40
0.7331486055543711
 40
0.7339592749887459
 40
0.7347949243134668
 40
0.7356554907288774
 40
0.7365408258325101
 40
0.737450706951673
 40
0.7383848478859855
 40
0.7393429089647471
 40
0.7403245063492735
 40
0.7413292205279296
 40
0.7423566039625203
 40
0.7434061878502085
 40
0.7444774879665056
 40
0.7455700095535474
 40
0.7466832512151987
 40
0.7478167077779799
 40
0.7489698720758223
 40
0.7501422356186854
 40
0.7513332881115785
 40
0.7525425158028924
 40
0.7537693986604728
 40
0.7550134064015372
 40
0.7562739934390315
 40
0.7575505928523176
 40
0.7588426095434182
 40
0.7601494127995352
 40
0.7614703285450973
 40
0.7628046316277044
 40
0.7641515385362219
 40
0.7655102009891258
 40
0.7668797008496443
 40
0.7682590468143001
 40
0.7696471732774931
 40
0.7710429416937075
 40
0.7724451446414589
 40
0.773852512644285
 40
0.7752637236337969
 40
0.776677414761974
 40
0.7780921961013031
 40
0.7795066656293986
 40
0.7809194247951242
 40
0.7823290939173341
 40
0.7837343266806178
 40
0.785133823063264
 40
0.7865263401528103
 40
0.787910700460441
 40
0.7892857975203471
 40
0.790650598736599
 40
0.7920041456023098
 40
0.7933455515517001
 40
0.7946739978073026
 40
0.7959887276489559
 40
0.7972890395595237
 40
0.7985742796987936
 40
0.799843834128149
 40
0.8010971211616249
 40
0.8023335841610791
 40
0.8035526850308081
 40
0.8047538986053023
 40
0.8059367080667559
 40
0.8071006014790351
 40
0.8082450694833766
 40
0.8093696041685586
 40
0.8104736991043445
 40
0.8115568505107993
 40
0.8126185595264851
 40
0.8136583355342019
 40
0.8146757005024309
 40
0.815670194302505
 40
0.8166413809643025
 40
0.8175888558355217
 40
0.8185122536098857
 40
0.8194112571865916
 40
0.8202856073155466
 40
0.8211351129691974
 40
0.8219596623608526
 40
0.8227592345004998
 40
0.8235339111416635
 40
0.8242838889269815
 40
0.8250094914867355
 40
0.8257111811855333
 40
0.8263895701508036
 40
0.8270454301573603
 40
0.8276797008908602
 40
0.8282934960766638
 40
0.8288881069471926
 40
0.829465002538055
 40
0.830025826357641
 40
0.8305723890707674
 40
0.8311066569749744
 40
0.831630736224212
 40
0.8321468529597396
 40
0.8326573297279491
 40
0.8331645587814607
 40
0.8336709730532715
 40
0.8341790157446336
 40
0.8346911095597334
 40
0.8352096266440929
 40
0.8357368602362305
 40
0.8362749989287638
 40
0.8368261042680801
 40
0.8373920922182868
 40
0.8379747187952632
 40
0.8385755699598403
 40
0.839196055662356
 40
0.8398374077666425
 40
0.8405006814573314
 40
0.8411867596525734
 40
0.8418963599028724
 40
0.8426300432505676
 40
0.8433882245464263
 40
0.8441711837620086
 40
0.8449790778912899
 40
0.8458119530957391
 40
0.8466697568081842
 40
0.8475523495682594
 40
0.8484595164133032
 40
0.8493909776916937
 40
0.8503463992001901
 40
0.8513254015730023
 40
0.8523275688687136
 40
0.8533524563127963
 40
0.8543995971594998
 40
0.8554685086386736
 40
0.8565586969519658
 40
0.8576696612802688
 40
0.858800896761629
 40
0.8599518963976223
 40
0.8611221518478037
 40
0.8623111530777858
 40
0.863518386838151
 40
0.8647433339700645
 40
0.8659854655601992
 40
0.8672442380030595
 40
0.8685190870731538
 40
0.8698094211619611
 40
0.871114613893581
 40
0.8724339963953518
 40
0.8737668495612504
 40
0.875112396700909
 40
0.8764697970088339
 40
0.8778381403096136
 40
0.8792164435284133
 40
0.8806036492960884
 40
0.881998627021351
 40
0.8834001766488427
 40
0.884807035176228
 40
0.8862178858349051
 40
0.8876313696611463
 40
0.8890460990139859
 40
0.8904606724504489
 40
0.8918736902637044
 40
0.893283769937491
 40
0.8946895607767849
 40
0.8960897570394197
 40
0.8974831090086274
 40
0.8988684315991745
 40
0.9002446102634035
 40
0.9016106041405477
 40
0.9029654465572043
 40
0.9043082431260606
 40
0.9056381677956482
 40
0.9069544572724499
 40
0.9082564042688246
 40
0.9095433500299726
 40
0.9108146765667707
 40
0.9120697989759794
 40
0.913308158172302
 40
0.9145292142946256
 40
0.9157324409867981
 40
0.9169173206955996
 40
0.9180833410777424
 40
0.9192299925653397
 40
0.9203567671057661
 40
0.9214631580669671
 40
0.9225486612822698
 40
0.9236127771984798
 40
0.9246550140862008
 40
0.9256748922704429
 40
0.9266719493412678
 40
0.9276457463069577
 40
0.9285958746545838
 40
0.9295219642834338
 40
0.9304236922741552
 40
0.9313007924492974
 40
0.9321530656679126
 40
0.9329803907768295
 40
0.9337827361132197
 40
0.9345601714165969
 40
0.9353128799634122
 40
0.9360411706847525
 40
0.9367454899690778
 40
0.9374264327905001
 40
0.938084752743177
 40
0.9387213705097534
 40
0.9393373802534128
 40
0.9399340534067435
 40
0.940512839344051
 40
0.9410753624737719
 40
0.9416234153788132
 40
0.9421589477660817
 40
0.9426840511587276
 40
0.9432009394671127
 40
0.9437119257935841
 40
0.944219396044107
 40
0.9447257801168163
 40
0.9452335215940294
 40
0.9457450469637936
 40
0.9462627354287738
 40
0.9467888903207012
 40
0.9473257130320945
 40
0.9478752802150786
 40
0.9484395247968063
 40
0.9490202211419208
 40
0.9496189744744666
 40
0.950237214471934
 40
0.9508761927758542
 40
0.9515369840345368
 40
0.9522204900070685
 40
0.952927446212021
 40
0.9536584305945516
 40
0.9544138737047873
 40
0.9551940699206967
 40
0.9559991893024496
 40
0.9568292897256001
 40
0.9576843290017547
 40
0.9585641767534121
 40
0.9594686258615371
 40
0.9603974033484924
 40
0.9613501805944644
 40
0.9623265828126112
 40
0.9633261977273573
 40
0.964348583412591
 40
0.9653932752531029
 40
0.9664597919947997
 40
0.9675476408483592
 40
0.9686563216085072
 40
0.9697853297483947
 40
0.9709341584470856
 40
0.9721022995094095
 40
0.973289243142809
 40
0.9744944765667714
 40
0.9757174814482548
 40
0.9769577301823246
 40
0.9782146810717051
 40
0.9794877725023393
 40
0.9807764162637174
 40
0.9820799902210677
 40
0.9833978306087234
 40
0.9847292242758421
 40
0.9860734012717279
 40
0.9874295282015829
 40
0.9887967028073603
 40
0.990173950225305
 40
0.9915602213357364
 40
0.9929543935479146
 40
0.9943552742531597
 40
0.9957616070368838
 40
0.9971720805735804
 40
1.0
 40
1.0
 40
1.0
 40
1.0
 10
0.0
 20
3.84
 30
0.0
 10
0.02269033527789082
 20
3.8400004399363987
 30
0.0
 10
0.05669764053703552
 20
3.8389412539358854
 30
0.0
 10
0.1018583994981241
 20
3.835434015581703
 30
0.0
 10
0.13550593772205596
 20
3.8317815411811886
 30
0.0
 10
0.16889790417579612
 20
3.8271310870603976
 30
0.0
 10
0.2019777128665236
 20
3.821515423976035
 30
0.0
 10
0.23469320680559247
 20
3.8149730808059372
 30
0.0
 10
0.26699714982161526
 20
3.8075475970793207
 30
0.0
 10
0.2988475472339788
 20
3.799286706785244
 30
0.0
 10
0.3302078034543684
 20
3.790241525510749
 30
0.0
 10
0.36104672796269494
 20
3.780465760660108
 30
0.0
 10
0.3913384084939004
 20
3.7700149716146347
 30
0.0
 10
0.4210619738603498
 20
3.758945896855929
 30
0.0
 10
0.45020127071485877
 20
3.747315859456756
 30
0.0
 10
0.4787444784630754
 20
3.735182256052641
 30
0.0
 10
0.5066836849956879
 20
3.722602129267942
 30
0.0
 10
0.5340144433349505
 20
3.7096318194146773
 30
0.0
 10
0.5607353261167185
 20
3.6963266882752084
 30
0.0
 10
0.5868474914320315
 20
3.6827409058403187
 30
0.0
 10
0.6123542702304173
 20
3.6689272898775114
 30
0.0
 10
0.637260782453375
 20
3.654937187972591
 30
0.0
 10
0.6615735864535746
 20
3.640820392033996
 30
0.0
 10
0.6853003641274975
 20
3.6266250759951073
 30
0.0
 10
0.7084496425576302
 20
3.612397748439576
 30
0.0
 10
0.7310305517990141
 20
3.5981832129847473
 30
0.0
 10
0.753052617704284
 20
3.584024530395051
 30
0.0
 10
0.7745255882996058
 20
3.5699629775003436
 30
0.0
 10
0.7954592921351821
 20
3.5560379990273567
 30
0.0
 10
0.8158635271731356
 20
3.5422871494036308
 30
0.0
 10
0.835747979081648
 20
3.528746022466132
 30
0.0
 10
0.855122168220233
 20
3.515448167818039
 30
0.0
 10
0.8739954250747285
 20
3.502424993351914
 30
0.0
 10
0.8923768943816198
 20
3.489705654225065
 30
0.0
 10
0.910275568620616
 20
3.4773169293635378
 30
0.0
 10
0.92770035190136
 20
3.4652830874125162
 30
0.0
 10
0.9446601554720111
 20
3.4536257449637184
 30
0.0
 10
0.9611640260781195
 20
3.442363720884761
 30
0.0
 10
0.977221308141858
 20
3.431512891646039
 30
0.0
 10
0.9928418401567459
 20
3.421086053661539
 30
0.0
 10
1.0080361847501582
 20
3.411092799780963
 30
0.0
 10
1.0228158905167148
 20
3.401539418111896
 30
0.0
 10
1.0371937819560157
 20
3.3924288222041237
 30
0.0
 10
1.0511842716796267
 20
3.3837605221567415
 30
0.0
 10
1.064803686555596
 20
3.3755306462553
 30
0.0
 10
1.0780705967657718
 20
3.367732022148142
 30
0.0
 10
1.091006134061247
 20
3.3603543251792347
 30
0.0
 10
1.1036342830807655
 20
3.353384299202808
 30
0.0
 10
1.115982127766251
 20
3.3468060519801472
 30
0.0
 10
1.1280800340154316
 20
3.3406014231719303
 30
0.0
 10
1.1399617500846067
 20
3.334750418189306
 30
0.0
 10
1.1516644081550065
 20
3.3292316960869917
 30
0.0
 10
1.1632284140348625
 20
3.3240230947271665
 30
0.0
 10
1.1746972171344545
 20
3.319102172147778
 30
0.0
 10
1.1861169593567966
 20
3.314446739982415
 30
0.0
 10
1.1975360089097564
 20
3.310035363380148
 30
0.0
 10
1.2090043926068677
 20
3.3058478024873996
 30
0.0
 10
1.2205731472248673
 20
3.3018653732783623
 30
0.0
 10
1.2322936161735636
 20
3.2980712101913334
 30
0.0
 10
1.2442167214766116
 20
3.294450419223663
 30
0.0
 10
1.2563922424515295
 20
3.290990117234671
 30
0.0
 10
1.2688681313917949
 20
3.2876793604674153
 30
0.0
 10
1.2816898931739895
 20
3.2845089719927483
 30
0.0
 10
1.2949000504838206
 20
3.281471283273251
 30
0.0
 10
1.3085377099073046
 20
3.278559808904977
 30
0.0
 10
1.3226382371784833
 20
3.275768875617979
 30
0.0
 10
1.3372330430994916
 20
3.2730932268359383
 30
0.0
 10
1.352349475625931
 20
3.2705276227411533
 30
0.0
 10
1.3680108087442524
 20
3.2680664532294594
 30
0.0
 10
1.3842363152714403
 20
3.265703377800102
 30
0.0
 10
1.4010414086140013
 20
3.2634310027346993
 30
0.0
 10
1.4184378377209292
 20
3.2612406022501736
 30
0.0
 10
1.436433919742143
 20
3.259121886951085
 30
0.0
 10
1.4550347959962981
 20
3.2570628200481164
 30
0.0
 10
1.474242698486258
 20
3.2550494795508875
 30
0.0
 10
1.494057216124832
 20
3.25306596300663
 30
0.0
 10
1.5144755518363593
 20
3.2510943303059237
 30
0.0
 10
1.535492763620694
 20
3.249114579540991
 30
0.0
 10
1.5571019843951523
 20
3.247104650791349
 30
0.0
 10
1.579294616903302
 20
3.245040452932715
 30
0.0
 10
1.6020605011718136
 20
3.242895909031718
 30
0.0
 10
1.6253880529122071
 20
3.240643016527878
 30
0.0
 10
1.649264371928538
 20
3.2382519191565904
 30
0.0
 10
1.6736753200449395
 20
3.2356909883902736
 30
0.0
 10
1.6986055683566648
 20
3.232926913038897
 30
0.0
 10
1.7240386137888295
 20
3.22992479653775
 30
0.0
 10
1.7499567650742005
 20
3.22664826234673
 30
0.0
 10
1.7763410983926224
 20
3.2230595687838948
 30
0.0
 10
1.8031713831070924
 20
3.2191197355064065
 30
0.0
 10
1.8304259783416217
 20
3.214788684721004
 30
0.0
 10
1.8580817016284776
 20
3.2100254010309808
 30
0.0
 10
1.8861136715570543
 20
3.204788114572699
 30
0.0
 10
1.9144951273264041
 20
3.199034512712218
 30
0.0
 10
1.9431972293678923
 20
3.192721985994352
 30
0.0
 10
1.972188846774045
 20
3.1858079141772553
 30
0.0
 10
2.0014363391265326
 20
3.178249997944447
 30
0.0
 10
2.0309033424052414
 20
3.170006641151628
 30
0.0
 10
2.0605505708787946
 20
3.1610373871251154
 30
0.0
 10
2.090335649067483
 20
3.1513034104843944
 30
0.0
 10
2.1202129898160824
 20
3.1407680631490753
 30
0.0
 10
2.150133735946347
 20
3.129397469604955
 30
0.0
 10
2.1800457835660096
 20
3.1171611622245576
 30
0.0
 10
2.2098939045697255
 20
3.104032742651618
 30
0.0
 10
2.2396199838820676
 20
3.089990550277885
 30
0.0
 10
2.2691633833498632
 20
3.0750183140991796
 30
0.0
 10
2.2984614388170965
 20
3.0591057602724248
 30
0.0
 10
2.327450089931702
 20
3.0422491450963043
 30
0.0
 10
2.356064633994749
 20
3.024451682475668
 30
0.0
 10
2.3842405862628837
 20
3.005723836659454
 30
0.0
 10
2.4119146203542887
 20
2.986083455409258
 30
0.0
 10
2.439025554709537
 20
2.9655557257112237
 30
0.0
 10
2.465515345347441
 20
2.944172943298026
 30
0.0
 10
2.491330042217247
 20
2.921974097878543
 30
0.0
 10
2.5164206667896347
 20
2.8990042870976906
 30
0.0
 10
2.5407439722756022
 20
2.875313982750482
 30
0.0
 10
2.5642630547184764
 20
2.850958181564611
 30
0.0
 10
2.5869477924826483
 20
2.825995479048863
 30
0.0
 10
2.608775102387436
 20
2.8004871079145044
 30
0.0
 10
2.629729011791815
 20
2.774495982250378
 30
0.0
 10
2.6498005562410727
 20
2.7480857852147342
 30
0.0
 10
2.6689875209364113
 20
2.721320132084448
 30
0.0
 10
2.687294050665977
 20
2.69426183288725
 30
0.0
 10
2.704730156657891
 20
2.666972270434964
 30
0.0
 10
2.72131115012028
 20
2.639510901230166
 30
0.0
 10
2.737057031319455
 20
2.6119348791429893
 30
0.0
 10
2.7519918603891362
 20
2.5842987954472596
 30
0.0
 10
2.7661431322148617
 20
2.55665452403708
 30
0.0
 10
2.7795411732499073
 20
2.529051157478434
 30
0.0
 10
2.792218573478009
 20
2.501535017880356
 30
0.0
 10
2.804209662326742
 20
2.4741497261777123
 30
0.0
 10
2.815550033420924
 20
2.4469363140239486
 30
0.0
 10
2.826276119801738
 20
2.41993336380253
 30
0.0
 10
2.8364248186854604
 20
2.3931771640063606
 30
0.0
 10
2.8460331629819886
 20
2.366701869169734
 30
0.0
 10
2.8551380355770886
 20
2.3405396554842586
 30
0.0
 10
2.8637759217140815
 20
2.31472086505668
 30
0.0
 10
2.87198269459058
 20
2.2892741333890365
 30
0.0
 10
2.8797934294163903
 20
2.264226496037468
 30
0.0
 10
2.8872422415707235
 20
2.2396034715241364
 30
0.0
 10
2.894362145076513
 20
2.215429118451097
 30
0.0
 10
2.9011849283163187
 20
2.1917260654252657
 30
0.0
 10
2.9077410447030165
 20
2.1685155128918834
 30
0.0
 10
2.9140595168551258
 20
2.1458172063384615
 30
0.0
 10
2.9201678536860576
 20
2.1236493806247303
 30
0.0
 10
2.9260919806792782
 20
2.102028675471326
 30
0.0
 10
2.931856184469056
 20
2.0809700224555847
 30
0.0
 10
2.9374830736583224
 20
2.060486504270887
 30
0.0
 10
2.9429935585556284
 20
2.0405891875566837
 30
0.0
 10
2.9484068531660497
 20
2.021286931344508
 30
0.0
 10
2.953740503280766
 20
2.0025861741252102
 30
0.0
 10
2.9590104448165855
 20
1.9844907037438493
 30
0.0
 10
2.9642310965903027
 20
1.9670014157681914
 30
0.0
 10
2.9694154913928346
 20
1.9501160676224656
 30
0.0
 10
2.974575448474077
 20
1.9338290375602134
 30
0.0
 10
2.9797217892879457
 20
1.9181310993553178
 30
0.0
 10
2.9848645965280682
 20
1.903009225258056
 30
0.0
 10
2.990013514098303
 20
1.8884464310881897
 30
0.0
 10
2.9951780827583216
 20
1.8744216780803227
 30
0.0
 10
3.0003681028889795
 20
1.8609098460047826
 30
0.0
 10
3.005594012349339
 20
1.8478817909250107
 30
0.0
 10
3.0108672640493905
 20
1.8353044985419698
 30
0.0
 10
3.0162006850139673
 20
1.823141340343025
 30
0.0
 10
3.0216087967773886
 20
1.8113524347872876
 30
0.0
 10
3.027108076322075
 20
1.7998951097654683
 30
0.0
 10
3.032717137775983
 20
1.7887244559937383
 30
0.0
 10
3.03845681788142
 20
1.7777939544153016
 30
0.0
 10
3.0443501528061105
 20
1.7670561547624706
 30
0.0
 10
3.050422239915326
 20
1.7564633778537482
 30
0.0
 10
3.0566999851666474
 20
1.7459684115457457
 30
0.0
 10
3.0632117441575657
 20
1.7355251699128307
 30
0.0
 10
3.069986871799634
 20
1.7250892873041017
 30
0.0
 10
3.0770552013862686
 20
1.7146186232448566
 30
0.0
 10
3.084446477877835
 20
1.7040736602503896
 30
0.0
 10
3.0921897721842524
 20
1.6934177838408413
 30
0.0
 10
3.100312902988952
 20
1.6826174416240325
 30
0.0
 10
3.108841890403238
 20
1.6716421854999142
 30
0.0
 10
3.117800461861981
 20
1.660464607205392
 30
0.0
 10
3.12720962570641
 20
1.6490601821213566
 30
0.0
 10
3.137087322435954
 20
1.6374070392883013
 30
0.0
 10
3.147448158200121
 20
1.6254856769210093
 30
0.0
 10
3.158303220198142
 20
1.6132786425525572
 30
0.0
 10
3.1696599695733076
 20
1.6007701955688443
 30
0.0
 10
3.181522204301222
 20
1.587945967672263
 30
0.0
 10
3.19389008251202
 20
1.574792634095575
 30
0.0
 10
3.2067601955871563
 20
1.561297605497105
 30
0.0
 10
3.2201256800910043
 20
1.5474487476649277
 30
0.0
 10
3.233976357959786
 20
1.533234133628345
 30
0.0
 10
3.2482988951897274
 20
1.5186418306351477
 30
0.0
 10
3.26307697037146
 20
1.5036597227575306
 30
0.0
 10
3.278291445662832
 20
1.4882753686445196
 30
0.0
 10
3.2939205340655806
 20
1.4724758931167643
 30
0.0
 10
3.3099399580936324
 20
1.4562479108524837
 30
0.0
 10
3.3263230960454537
 20
1.4395774802828523
 30
0.0
 10
3.3430411130988564
 20
1.4224500859397757
 30
0.0
 10
3.3600630753348764
 20
1.4048506478202827
 30
0.0
 10
3.3773560455847615
 20
1.3867635567948957
 30
0.0
 10
3.394885160707928
 20
1.3681727356429245
 30
0.0
 10
3.412613690584792
 20
1.3490617259002702
 30
0.0
 10
3.430503079783641
 20
1.3294138013113361
 30
0.0
 10
3.4485129735742746
 20
1.3092121092424063
 30
0.0
 10
3.466601230747263
 20
1.2884398418929337
 30
0.0
 10
3.484723926584753
 20
1.2670804394816622
 30
0.0
 10
3.5028353503346623
 20
1.2451178277288655
 30
0.0
 10
3.520888002667008
 20
1.222536691838963
 30
0.0
 10
3.5388325998215175
 20
1.199322788739327
 30
0.0
 10
3.556618092445967
 20
1.1754632984792126
 30
0.0
 10
3.5741917083997787
 20
1.1509472143702897
 30
0.0
 10
3.5914990299479044
 20
1.125765769604992
 30
0.0
 10
3.608484116648465
 20
1.0999128956965714
 30
0.0
 10
3.6250896856642227
 20
1.0733857051654234
 30
0.0
 10
3.641257360997521
 20
1.0461849875318545
 30
0.0
 10
3.6569280020498347
 20
1.018315704026079
 30
0.0
 10
3.6720421197487942
 20
0.989787462742198
 30
0.0
 10
3.6865403851320107
 20
0.960614952585793
 30
0.0
 10
3.700364230688374
 20
0.9308183117159001
 30
0.0
 10
3.713456539032395
 20
0.9004234047292301
 30
0.0
 10
3.725762406893236
 20
0.8694619830409683
 30
0.0
 10
3.737229965390463
 20
0.837971705169413
 30
0.0
 10
3.7478112307639786
 20
0.8059959981620843
 30
0.0
 10
3.7574629538667956
 20
0.7735837482062149
 30
0.0
 10
3.7661474325893254
 20
0.7407888172544553
 30
0.0
 10
3.77383324965406
 20
0.7076693926691862
 30
0.0
 10
3.780495899389148
 20
0.6742871875775124
 30
0.0
 10
3.7861182713348285
 20
0.6407065197883413
 30
0.0
 10
3.7906909656585963
 20
0.6069933056682536
 30
0.0
 10
3.7942124247711773
 20
0.5732140113438992
 30
0.0
 10
3.7966888763478415
 20
0.5394346063128902
 30
0.0
 10
3.7981340940778496
 20
0.5057195637110917
 30
0.0
 10
3.798568992770133
 20
0.47213094724669424
 30
0.0
 10
3.7980210829531336
 20
0.4387276177222723
 30
0.0
 10
3.796523816111538
 20
0.4055645829834848
 30
0.0
 10
3.794115854845671
 20
0.3726925050794192
 30
0.0
 10
3.7908403025314894
 20
0.34015736842176136
 30
0.0
 10
3.7867439248311014
 20
0.3080003036814904
 30
0.0
 10
3.7818763912157034
 20
0.276257554722634
 30
0.0
 10
3.776289559192473
 20
0.24496057042422997
 30
0.0
 10
3.7700368178622266
 20
0.21413619988972238
 30
0.0
 10
3.763172501387548
 20
0.18380696816119946
 30
0.0
 10
3.755751377399586
 20
0.15399140985135598
 30
0.0
 10
3.7478282106391494
 20
0.1247044396921684
 30
0.0
 10
3.739457398382026
 20
0.09595774146179852
 30
0.0
 10
3.7306926714776862
 20
0.06776015969961134
 30
0.0
 10
3.721586853073023
 20
0.040118081721263715
 30
0.0
 10
3.712191666172694
 20
0.01303580044337618
 30
0.0
 10
3.7025575809468645
 20
-0.013484148759071878
 30
0.0
 10
3.692733692969428
 20
-0.03944068161872474
 30
0.0
 10
3.682767624200909
 20
-0.06483389154255209
 30
0.0
 10
3.6727054393865664
 20
-0.08966481032386404
 30
0.0
 10
3.662591571516547
 20
-0.11393520313030159
 30
0.0
 10
3.6524687510129574
 20
-0.13764739725603192
 30
0.0
 10
3.6423779343179574
 20
-0.16080414379800265
 30
0.0
 10
3.632358228527852
 20
-0.18340851134036232
 30
0.0
 10
3.6224468096416036
 20
-0.20546381084651286
 30
0.0
 10
3.6126788328714077
 20
-0.226973551205631
 30
0.0
 10
3.60308733431245
 20
-0.2479414252031489
 30
0.0
 10
3.5937031241076784
 20
-0.26837132602790165
 30
0.0
 10
3.584554672093266
 20
-0.2882673947386695
 30
0.0
 10
3.575667987790425
 20
-0.30763409933536756
 30
0.0
 10
3.5670664975325637
 20
-0.32647634615983134
 30
0.0
 10
3.5587709224870294
 20
-0.34479962423122734
 30
0.0
 10
3.5507991623354997
 20
-0.3626101827451104
 30
0.0
 10
3.5431661903866614
 20
-0.3799152412796996
 30
0.0
 10
3.535883966855566
 20
-0.39672323121306297
 30
0.0
 10
3.5289613778769042
 20
-0.41304406543204275
 30
0.0
 10
3.522404208420835
 20
-0.4288894316052859
 30
0.0
 10
3.51621515752224
 20
-0.4442731021337571
 30
0.0
 10
3.51039390397735
 20
-0.4592112514670235
 30
0.0
 10
3.504937229764585
 20
-0.4737227689266658
 30
0.0
 10
3.4998392067896353
 20
-0.48782955271691136
 30
0.0
 10
3.495091450065257
 20
-0.5015567686965262
 30
0.0
 10
3.4906834371165956
 20
-0.514933056049292
 30
0.0
 10
3.4866028893579584
 20
-0.5279906615538157
 30
0.0
 10
3.4828362066413767
 20
-0.5407654850216713
 30
0.0
 10
3.4793689414803177
 20
-0.5532970208689748
 30
0.0
 10
3.476186295054793
 20
-0.5656281847986151
 30
0.0
 10
3.4732736135202704
 20
-0.5778050200999716
 30
0.0
 10
3.470616860878022
 20
-0.589876284810601
 30
0.0
 10
3.4682030441377947
 20
-0.6018929284128921
 30
0.0
 10
3.4660205679671727
 20
-0.6139074741786111
 30
0.0
 10
3.464059499496547
 20
-0.6259733299650073
 30
0.0
 10
3.4623117291989827
 20
-0.638144055473489
 30
0.0
 10
3.4607710203118556
 20
-0.650472617112042
 30
0.0
 10
3.4594329464547435
 20
-0.663010662299037
 30
0.0
 10
3.4582947241839785
 20
-0.6758078432475613
 30
0.0
 10
3.457354953494275
 20
-0.6889112162189558
 30
0.0
 10
3.4566132841507686
 20
-0.7023647364322534
 30
0.0
 10
3.456070028836235
 20
-0.716208861935972
 30
0.0
 10
3.455725745299143
 20
-0.7304802725265077
 30
0.0
 10
3.455580809092056
 20
-0.7452117029264961
 30
0.0
 10
3.455634996391342
 20
-0.7604318834787752
 30
0.0
 10
3.455887093201047
 20
-0.7761655769458723
 30
0.0
 10
3.456334543426457
 20
-0.7924336968097139
 30
0.0
 10
3.4569731442938476
 20
-0.8092534907361164
 30
0.0
 10
3.4577967937606395
 20
-0.8266387724543618
 30
0.0
 10
3.458797291174426
 20
-0.8446001859585845
 30
0.0
 10
3.459964189665306
 20
-0.863145487376301
 30
0.0
 10
3.4612846966632267
 20
-0.8822798317791256
 30
0.0
 10
3.462743617511724
 20
-0.9020060543697668
 30
0.0
 10
3.4643233363394774
 20
-0.922324937654467
 30
0.0
 10
3.466003828056986
 20
-0.9432354582423609
 30
0.0
 10
3.4677626954603014
 20
-0.9647350086991403
 30
0.0
 10
3.4695752258430543
 20
-0.9868195913657206
 30
0.0
 10
3.471414462148465
 20
-1.0094839822161121
 30
0.0
 10
3.473251284459476
 20
-1.0327218636840554
 30
0.0
 10
3.4750544984699268
 20
-1.0565259259673132
 30
0.0
 10
3.476790928463937
 20
-1.080887936665881
 30
0.0
 10
3.478425513230676
 20
-1.105798778778379
 30
0.0
 10
3.479921404245627
 20
-1.131248457124372
 30
0.0
 10
3.4812400663544034
 20
-1.1572260732371509
 30
0.0
 10
3.482341382101839
 20
-1.183719768738856
 30
0.0
 10
3.483183761758994
 20
-1.2107166372259082
 30
0.0
 10
3.4837242620111564
 20
-1.2382026048158352
 30
0.0
 10
3.483918717170768
 20
-1.2661622797939234
 30
0.0
 10
3.4837218876478357
 20
-1.2945787723064233
 30
0.0
 10
3.483087631209553
 20
-1.323433485827845
 30
0.0
 10
3.4819691032334195
 20
-1.3527058832269456
 30
0.0
 10
3.4803189926273146
 20
-1.382373231698748
 30
0.0
 10
3.4780898002572385
 20
-1.4124103326244033
 30
0.0
 10
3.4752341664726987
 20
-1.4427892445409578
 30
0.0
 10
3.471705253523565
 20
-1.4734790097787598
 30
0.0
 10
3.4674571871943107
 20
-1.5044453978303727
 30
0.0
 10
3.462445559734146
 20
-1.5356506809650043
 30
0.0
 10
3.456627993069337
 20
-1.5670534597439867
 30
0.0
 10
3.449964757351753
 20
-1.5986085576175701
 30
0.0
 10
3.442419435228272
 20
-1.6302670043435845
 30
0.0
 10
3.4339596170349855
 20
-1.6619761272145113
 30
0.0
 10
3.4245576067890777
 20
-1.693679766706991
 30
0.0
 10
3.414191113860102
 20
-1.7253186289784865
 30
0.0
 10
3.402843901139012
 20
-1.7568307816017386
 30
0.0
 10
3.3905063580127934
 20
-1.7881522912434993
 30
0.0
 10
3.377175966072073
 20
-1.819217993109702
 30
0.0
 10
3.362857627655795
 20
-1.849962372589926
 30
0.0
 10
3.347563832249382
 20
-1.8803205305273072
 30
0.0
 10
3.3313146432558445
 20
-1.9102291958928939
 30
0.0
 10
3.314137497254727
 20
-1.9396277442854892
 30
0.0
 10
3.296066818732402
 20
-1.9684591783418748
 30
0.0
 10
3.277143464363207
 20
-1.9966710272327455
 30
0.0
 10
3.2574140211158626
 20
-2.0242161269297965
 30
0.0
 10
3.2369299907116758
 20
-2.0510532504265786
 30
0.0
 10
3.215746898470706
 20
-2.0771475667837738
 30
0.0
 10
3.193923366907678
 20
-2.102470918711023
 30
0.0
 10
3.1715201935440818
 20
-2.1270019192772014
 30
0.0
 10
3.148599468632416
 20
-2.150725878228404
 30
0.0
 10
3.1252237624853803
 20
-2.173634576476937
 30
0.0
 10
3.1014554046837457
 20
-2.1957259130980633
 30
0.0
 10
3.077355869458323
 20
-2.217003452452394
 30
0.0
 10
3.052985273782684
 20
-2.2374758999557827
 30
0.0
 10
3.028401987790799
 20
-2.257156533886269
 30
0.0
 10
3.003662351458302
 20
-2.276062617929286
 30
0.0
 10
2.978820487258726
 20
-2.2942148154491186
 30
0.0
 10
2.9539281957428543
 20
-2.311636622246133
 30
0.0
 10
2.929034919566167
 20
-2.3283538302513236
 30
0.0
 10
2.904187761190962
 20
-2.34439403055796
 30
0.0
 10
2.8794315400574617
 20
-2.3597861606207617
 30
0.0
 10
2.854808876188868
 20
-2.3745600974938443
 30
0.0
 10
2.83036028872798
 20
-2.3887462966724122
 30
0.0
 10
2.8061242995961737
 20
-2.402375474433095
 30
0.0
 10
2.7821375341634917
 20
-2.4154783304746936
 30
0.0
 10
2.758434812412222
 20
-2.428085307064402
 30
0.0
 10
2.7350492254974657
 20
-2.440226380705506
 30
0.0
 10
2.71201219382474
 20
-2.4519308824742825
 30
0.0
 10
2.6893535037713625
 20
-2.463227343548236
 30
0.0
 10
2.667101320990702
 20
-2.4741433629980953
 30
0.0
 10
2.6452821788875363
 20
-2.4847054955871566
 30
0.0
 10
2.623920941378161
 20
-2.4949391580701903
 30
0.0
 10
2.6030407394976343
 20
-2.504868553274313
 30
0.0
 10
2.582662881838423
 20
-2.5145166120468887
 30
0.0
 10
2.5628067392505667
 20
-2.523904953942484
 30
0.0
 10
2.5434896047532978
 20
-2.533053868263971
 30
0.0
 10
2.52472653024838
 20
-2.541982317738402
 30
0.0
 10
2.5065301424256945
 20
-2.550707967655943
 30
0.0
 10
2.488910441240994
 20
-2.5592472436802245
 30
0.0
 10
2.4718745855374347
 20
-2.567615421691632
 30
0.0
 10
2.4554266717669835
 20
-2.575826752883043
 30
0.0
 10
2.4395675133072525
 20
-2.583894626818501
 30
0.0
 10
2.4242944294897146
 20
-2.5918317742185826
 30
0.0
 10
2.4096010550413163
 20
-2.599650509795768
 30
0.0
 10
2.3954771820362786
 20
-2.60736301349838
 30
0.0
 10
2.3819086474614695
 20
-2.6149816460473043
 30
0.0
 10
2.368877279893746
 20
-2.622519291739862
 30
0.0
 10
2.3563609183413603
 20
-2.6299897183005223
 30
0.0
 10
2.3443335148086684
 20
-2.637407940311302
 30
0.0
 10
2.3327653294618504
 20
-2.644790569769288
 30
0.0
 10
2.321623223366207
 20
-2.6521561349668064
 30
0.0
 10
2.3108710487376514
 20
-2.6595253475682616
 30
0.0
 10
2.3004701307743667
 20
-2.666921297830463
 30
0.0
 10
2.2903798288466652
 20
-2.6743695596506014
 30
0.0
 10
2.280558158699723
 20
-2.6818981906365074
 30
0.0
 10
2.2709624520143423
 20
-2.6895376175763994
 30
0.0
 10
2.261550025813024
 20
-2.69732040420698
 30
0.0
 10
2.252278832315933
 20
-2.705280905490853
 30
0.0
 10
2.2431080602629634
 20
-2.7134548200155084
 30
0.0
 10
2.233998661471296
 20
-2.721878658853281
 30
0.0
 10
2.2249137812501303
 20
-2.730589154566577
 30
0.0
 10
2.215819077741099
 20
-2.739622637457817
 30
0.0
 10
2.206682922606076
 20
-2.749014407345809
 30
0.0
 10
2.197476482977443
 20
-2.7587981280773874
 30
0.0
 10
2.1881736914897383
 20
-2.7690052689041043
 30
0.0
 10
2.178751116933333
 20
-2.779664612229497
 30
0.0
 10
2.1691877522196488
 20
-2.7908018416535008
 30
0.0
 10
2.15946473876232
 20
-2.8024392183279163
 30
0.0
 10
2.1495650471113685
 20
-2.814595347957541
 30
0.0
 10
2.139473132950143
 20
-2.827285035782918
 30
0.0
 10
2.1291745857083866
 20
-2.840519222859035
 30
0.0
 10
2.118655784435575
 20
-2.8543049940370353
 30
0.0
 10
2.1079035725850224
 20
-2.8686456462638588
 30
0.0
 10
2.096904960300022
 20
-2.8835408050315348
 30
0.0
 10
2.0856468599173903
 20
-2.8989865768599503
 30
0.0
 10
2.074115857881505
 20
-2.914975726381154
 30
0.0
 10
2.06229802419012
 20
-2.93149786770299
 30
0.0
 10
2.05017875890746
 20
-2.9485396610811994
 30
0.0
 10
2.037742674169501
 20
-2.966085007368665
 30
0.0
 10
2.0249735094290937
 20
-2.984115234124647
 30
0.0
 10
2.0118540773863183
 20
-3.0026092685779875
 30
0.0
 10
1.9983662380561722
 20
-3.0215437938037817
 30
0.0
 10
1.9844908986772933
 20
-3.0408933854775815
 30
0.0
 10
1.9702080376021693
 20
-3.0606306274216637
 30
0.0
 10
1.9554967508788774
 20
-3.080726204877686
 30
0.0
 10
1.9403353208917764
 20
-3.101148975062647
 30
0.0
 10
1.9247013071336483
 20
-3.1218660151325666
 30
0.0
 10
1.9085716598982603
 20
-3.1428426482343172
 30
0.0
 10
1.8919228583740748
 20
-3.1640424489168693
 30
0.0
 10
1.874731075247944
 20
-3.1854272298414066
 30
0.0
 10
1.8569723704477628
 20
-3.2069570125143145
 30
0.0
 10
1.838622917013493
 20
-3.2285899856968623
 30
0.0
 10
1.819659262224731
 20
-3.2502824562391326
 30
0.0
 10
1.8000586269603402
 20
-3.271988798341067
 30
0.0
 10
1.7797992457435614
 20
-3.293661408637964
 30
0.0
 10
1.7588607489553372
 20
-3.3152506759852445
 30
0.0
 10
1.7372245872054668
 20
-3.3367049762885808
 30
0.0
 10
1.7148744957807487
 20
-3.3579707040587183
 30
0.0
 10
1.6917969944194202
 20
-3.3789923533933974
 30
0.0
 10
1.667981914423235
 20
-3.399712661592864
 30
0.0
 10
1.6434229414147392
 20
-3.4200728283668216
 30
0.0
 10
1.618118158069306
 20
-3.4400128223542654
 30
0.0
 10
1.5920705671903288
 20
-3.459471784248144
 30
0.0
 10
1.5652885719392837
 20
-3.4783885320601007
 30
0.0
 10
1.5377863873460762
 20
-3.49670216896008
 30
0.0
 10
1.5095843559113835
 20
-3.514352787824706
 30
0.0
 10
1.4807091406474748
 20
-3.5312822594608146
 30
0.0
 10
1.4511937716583445
 20
-3.54743508396741
 30
0.0
 10
1.421077527512441
 20
-3.562759277559787
 30
0.0
 10
1.3904056401261147
 20
-3.577207261206059
 30
0.0
 10
1.359228821253892
 20
-3.590736713420294
 30
0.0
 10
1.3276026192664854
 20
-3.603311348195555
 30
0.0
 10
1.295586625730494
 20
-3.614901580770151
 30
0.0
 10
1.263243561293467
 20
-3.625485048779796
 30
0.0
 10
1.2306382784497634
 20
-3.635046964037898
 30
0.0
 10
1.1978367240273688
 20
-3.6435802800133525
 30
0.0
 10
1.1649049061296282
 20
-3.6510856710618254
 30
0.0
 10
1.1319079086406438
 20
-3.6575713304946276
 30
0.0
 10
1.0989089915406745
 20
-3.6630526045463565
 30
0.0
 10
1.0659688078329344
 20
-3.667551487322774
 30
0.0
 10
1.0331447587634008
 20
-3.6710960072674395
 30
0.0
 10
1.0004904992320742
 20
-3.673719538331911
 30
0.0
 10
0.9680555958130834
 20
-3.6754600689696395
 30
0.0
 10
0.9358853314189809
 20
-3.6763594596843805
 30
0.0
 10
0.9040206439140951
 20
-3.676462715723494
 30
0.0
 10
0.8724981811857697
 20
-3.675817296270825
 30
0.0
 10
0.8413504523515535
 20
-3.6744724758009086
 30
0.0
 10
0.8106060537463372
 20
-3.672478767655893
 30
0.0
 10
0.7802899487911952
 20
-3.6698874148152543
 30
0.0
 10
0.7504237824240192
 20
-3.6667499485164665
 30
0.0
 10
0.7210262130883038
 20
-3.663117811984733
 30
0.0
 10
0.6921132479816516
 20
-3.6590420440601705
 30
0.0
 10
0.6636985700686054
 20
-3.6545730159066276
 30
0.0
 10
0.6357938480429265
 20
-3.6497602131303064
 30
0.0
 10
0.6084090228319623
 20
-3.644652055387063
 30
0.0
 10
0.5815525662821575
 20
-3.6392957457685395
 30
0.0
 10
0.5552317093138128
 20
-3.633737142795865
 30
0.0
 10
0.5294526380860484
 20
-3.6280206486005495
 30
0.0
 10
0.5042206575983412
 20
-3.6221891077460704
 30
0.0
 10
0.47954032271819513
 20
-3.616283712074117
 30
0.0
 10
0.45541553691924447
 20
-3.6103439079037116
 30
0.0
 10
0.43184961909963365
 20
-3.60440730284466
 30
0.0
 10
0.4088453387848403
 20
-3.598509570400246
 30
0.0
 10
0.38640491986172937
 20
-3.5926843514295506
 30
0.0
 10
0.3645300127981311
 20
-3.586963152425974
 30
0.0
 10
0.34322163513198906
 20
-3.5813752414570583
 30
0.0
 10
0.32248007992247335
 20
-3.575947543512281
 30
0.0
 10
0.3023047918996079
 20
-3.570704537924799
 30
0.0
 10
0.28269421128508104
 20
-3.565668161466417
 30
0.0
 10
0.2636455857400718
 20
-3.560857721644484
 30
0.0
 10
0.24515475167474599
 20
-3.556289825619862
 30
0.0
 10
0.22721588726719205
 20
-3.5519783309614312
 30
0.0
 10
0.20982124100666324
 20
-3.5479343250767736
 30
0.0
 10
0.19296084138924965
 20
-3.544166140512212
 30
0.0
 10
0.1766221955069286
 20
-3.5406794132819126
 30
0.0
 10
0.16078998658762864
 20
-3.5374771908416283
 30
0.0
 10
0.1454457829122052
 20
-3.5345600951502636
 30
0.0
 10
0.13056777274051667
 20
-3.5319265443708385
 30
0.0
 10
0.11613054165668697
 20
-3.529573034112081
 30
0.0
 10
0.1021049097877818
 20
-3.5274944757387567
 30
0.0
 10
0.0884578463494552
 20
-3.525684585320232
 30
0.0
 10
0.07515247765097041
 20
-3.524136312490677
 30
0.0
 10
0.06214820186353137
 20
-3.5228422942211997
 30
0.0
 10
0.04940091947446094
 20
-3.521795314700499
 30
0.0
 10
0.03686338255593468
 20
-3.5209887496736867
 30
0.0
 10
0.02448565911750104
 20
-3.5204169721598118
 30
0.0
 10
0.012215701430496119
 20
-3.5200756968139335
 30
0.0
 10
1.3141614956023323e-15
 20
-3.5199622424972397
 30
0.0
 10
-0.012215701430497631
 20
-3.520075696813933
 30
0.0
 10
-0.024485659117499434
 20
-3.520416972159812
 30
0.0
 10
-0.03686338255593431
 20
-3.520988749673687
 30
0.0
 10
-0.04940091947446057
 20
-3.521795314700499
 30
0.0
 10
-0.062148201863529796
 20
-3.5228422942212005
 30
0.0
 10
-0.075152477650972
 20
-3.5241363124906764
 30
0.0
 10
-0.08845784634945182
 20
-3.5256845853202314
 30
0.0
 10
-0.10210490978778322
 20
-3.5274944757387554
 30
0.0
 10
-0.11613054165668692
 20
-3.529573034112081
 30
0.0
 10
-0.1305677727405164
 20
-3.5319265443708376
 30
0.0
 10
-0.1454457829122025
 20
-3.5345600951502614
 30
0.0
 10
-0.16078998658762997
 20
-3.5374771908416296
 30
0.0
 10
-0.1766221955069265
 20
-3.5406794132819117
 30
0.0
 10
-0.192960841389251
 20
-3.5441661405122122
 30
0.0
 10
-0.2098212410066593
 20
-3.547934325076774
 30
0.0
 10
-0.2272158872671924
 20
-3.551978330961431
 30
0.0
 10
-0.24515475167474587
 20
-3.5562898256198614
 30
0.0
 10
-0.26364558574007124
 20
-3.5608577216444837
 30
0.0
 10
-0.2826942112850802
 20
-3.5656681614664185
 30
0.0
 10
-0.30230479189960763
 20
-3.570704537924799
 30
0.0
 10
-0.3224800799224719
 20
-3.5759475435122794
 30
0.0
 10
-0.3432216351319882
 20
-3.581375241457059
 30
0.0
 10
-0.3645300127981294
 20
-3.586963152425972
 30
0.0
 10
-0.3864049198617294
 20
-3.5926843514295523
 30
0.0
 10
-0.4088453387848385
 20
-3.5985095704002448
 30
0.0
 10
-0.43184961909963443
 20
-3.6044073028446606
 30
0.0
 10
-0.4554155369192424
 20
-3.610343907903711
 30
0.0
 10
-0.4795403227181935
 20
-3.616283712074117
 30
0.0
 10
-0.5042206575983423
 20
-3.6221891077460704
 30
0.0
 10
-0.5294526380860455
 20
-3.6280206486005504
 30
0.0
 10
-0.555231709313813
 20
-3.6337371427958627
 30
0.0
 10
-0.5815525662821578
 20
-3.639295745768541
 30
0.0
 10
-0.6084090228319617
 20
-3.644652055387063
 30
0.0
 10
-0.6357938480429262
 20
-3.649760213130308
 30
0.0
 10
-0.6636985700686049
 20
-3.654573015906625
 30
0.0
 10
-0.6921132479816542
 20
-3.659042044060172
 30
0.0
 10
-0.7210262130883041
 20
-3.663117811984732
 30
0.0
 10
-0.7504237824240201
 20
-3.666749948516466
 30
0.0
 10
-0.7802899487911974
 20
-3.669887414815253
 30
0.0
 10
-0.8106060537463369
 20
-3.6724787676558943
 30
0.0
 10
-0.8413504523515536
 20
-3.6744724758009086
 30
0.0
 10
-0.8724981811857693
 20
-3.6758172962708264
 30
0.0
 10
-0.9040206439140949
 20
-3.6764627157234933
 30
0.0
 10
-0.9358853314189818
 20
-3.67635945968438
 30
0.0
 10
-0.9680555958130848
 20
-3.6754600689696417
 30
0.0
 10
-1.000490499232076
 20
-3.67371953833191
 30
0.0
 10
-1.0331447587634006
 20
-3.6710960072674403
 30
0.0
 10
-1.0659688078329361
 20
-3.6675514873227724
 30
0.0
 10
-1.0989089915406745
 20
-3.6630526045463587
 30
0.0
 10
-1.1319079086406474
 20
-3.6575713304946262
 30
0.0
 10
-1.164904906129627
 20
-3.6510856710618262
 30
0.0
 10
-1.1978367240273697
 20
-3.6435802800133517
 30
0.0
 10
-1.2306382784497614
 20
-3.635046964037899
 30
0.0
 10
-1.263243561293468
 20
-3.6254850487797956
 30
0.0
 10
-1.2955866257304935
 20
-3.61490158077015
 30
0.0
 10
-1.3276026192664867
 20
-3.603311348195556
 30
0.0
 10
-1.359228821253893
 20
-3.5907367134202945
 30
0.0
 10
-1.390405640126116
 20
-3.577207261206057
 30
0.0
 10
-1.4210775275124434
 20
-3.5627592775597883
 30
0.0
 10
-1.4511937716583438
 20
-3.547435083967408
 30
0.0
 10
-1.480709140647475
 20
-3.5312822594608155
 30
0.0
 10
-1.5095843559113813
 20
-3.5143527878247047
 30
0.0
 10
-1.5377863873460769
 20
-3.496702168960082
 30
0.0
 10
-1.5652885719392802
 20
-3.4783885320601025
 30
0.0
 10
-1.5920705671903288
 20
-3.4594717842481457
 30
0.0
 10
-1.6181181580693011
 20
-3.4400128223542676
 30
0.0
 10
-1.643422941414737
 20
-3.4200728283668247
 30
0.0
 10
-1.6679819144232324
 20
-3.399712661592865
 30
0.0
 10
-1.6917969944194169
 20
-3.3789923533933997
 30
0.0
 10
-1.7148744957807474
 20
-3.3579707040587206
 30
0.0
 10
-1.7372245872054644
 20
-3.336704976288585
 30
0.0
 10
-1.7588607489553374
 20
-3.3152506759852436
 30
0.0
 10
-1.7797992457435585
 20
-3.2936614086379663
 30
0.0
 10
-1.8000586269603385
 20
-3.2719887983410705
 30
0.0
 10
-1.8196592622247294
 20
-3.2502824562391313
 30
0.0
 10
-1.838622917013491
 20
-3.2285899856968663
 30
0.0
 10
-1.8569723704477596
 20
-3.2069570125143154
 30
0.0
 10
-1.8747310752479422
 20
-3.185427229841409
 30
0.0
 10
-1.8919228583740733
 20
-3.1640424489168706
 30
0.0
 10
-1.9085716598982576
 20
-3.14284264823432
 30
0.0
 10
-1.9247013071336465
 20
-3.1218660151325692
 30
0.0
 10
-1.9403353208917773
 20
-3.101148975062645
 30
0.0
 10
-1.9554967508788754
 20
-3.080726204877688
 30
0.0
 10
-1.9702080376021687
 20
-3.0606306274216664
 30
0.0
 10
-1.9844908986772911
 20
-3.0408933854775815
 30
0.0
 10
-1.9983662380561706
 20
-3.0215437938037835
 30
0.0
 10
-2.011854077386316
 20
-3.002609268577989
 30
0.0
 10
-2.0249735094290915
 20
-2.98411523412465
 30
0.0
 10
-2.037742674169501
 20
-2.9660850073686644
 30
0.0
 10
-2.050178758907458
 20
-2.948539661081204
 30
0.0
 10
-2.0622980241901177
 20
-2.9314978677029906
 30
0.0
 10
-2.074115857881505
 20
-2.9149757263811535
 30
0.0
 10
-2.0856468599173876
 20
-2.8989865768599534
 30
0.0
 10
-2.096904960300022
 20
-2.883540805031535
 30
0.0
 10
-2.1079035725850215
 20
-2.868645646263861
 30
0.0
 10
-2.118655784435575
 20
-2.8543049940370326
 30
0.0
 10
-2.129174585708386
 20
-2.840519222859038
 30
0.0
 10
-2.1394731329501435
 20
-2.8272850357829165
 30
0.0
 10
-2.1495650471113676
 20
-2.8145953479575394
 30
0.0
 10
-2.15946473876232
 20
-2.8024392183279185
 30
0.0
 10
-2.1691877522196465
 20
-2.790801841653502
 30
0.0
 10
-2.178751116933333
 20
-2.779664612229497
 30
0.0
 10
-2.1881736914897374
 20
-2.769005268904106
 30
0.0
 10
-2.197476482977442
 20
-2.758798128077386
 30
0.0
 10
-2.2066829226060776
 20
-2.74901440734581
 30
0.0
 10
-2.215819077741097
 20
-2.7396226374578183
 30
0.0
 10
-2.22491378125013
 20
-2.7305891545665766
 30
0.0
 10
-2.2339986614712948
 20
-2.7218786588532837
 30
0.0
 10
-2.243108060262964
 20
-2.7134548200155066
 30
0.0
 10
-2.252278832315931
 20
-2.705280905490855
 30
0.0
 10
-2.261550025813024
 20
-2.6973204042069785
 30
0.0
 10
-2.2709624520143414
 20
-2.6895376175764008
 30
0.0
 10
-2.280558158699723
 20
-2.6818981906365065
 30
0.0
 10
-2.2903798288466626
 20
-2.674369559650604
 30
0.0
 10
-2.300470130774366
 20
-2.6669212978304633
 30
0.0
 10
-2.310871048737652
 20
-2.659525347568261
 30
0.0
 10
-2.3216232233662066
 20
-2.6521561349668077
 30
0.0
 10
-2.332765329461848
 20
-2.6447905697692873
 30
0.0
 10
-2.3443335148086692
 20
-2.637407940311302
 30
0.0
 10
-2.3563609183413576
 20
-2.629989718300523
 30
0.0
 10
-2.368877279893747
 20
-2.6225192917398634
 30
0.0
 10
-2.381908647461466
 20
-2.6149816460473043
 30
0.0
 10
-2.395477182036278
 20
-2.6073630134983814
 30
0.0
 10
-2.4096010550413154
 20
-2.599650509795768
 30
0.0
 10
-2.424294429489714
 20
-2.591831774218584
 30
0.0
 10
-2.4395675133072525
 20
-2.5838946268185015
 30
0.0
 10
-2.455426671766981
 20
-2.5758267528830427
 30
0.0
 10
-2.4718745855374347
 20
-2.567615421691633
 30
0.0
 10
-2.488910441240993
 20
-2.559247243680224
 30
0.0
 10
-2.506530142425694
 20
-2.5507079676559448
 30
0.0
 10
-2.52472653024838
 20
-2.541982317738405
 30
0.0
 10
-2.5434896047532978
 20
-2.53305386826397
 30
0.0
 10
-2.5628067392505667
 20
-2.5239049539424845
 30
0.0
 10
-2.5826628818384223
 20
-2.514516612046889
 30
0.0
 10
-2.6030407394976334
 20
-2.504868553274314
 30
0.0
 10
-2.6239209413781586
 20
-2.4949391580701903
 30
0.0
 10
-2.645282178887536
 20
-2.484705495587156
 30
0.0
 10
-2.6671013209906986
 20
-2.474143362998097
 30
0.0
 10
-2.6893535037713625
 20
-2.463227343548237
 30
0.0
 10
-2.7120121938247412
 20
-2.451930882474281
 30
0.0
 10
-2.735049225497464
 20
-2.4402263807055076
 30
0.0
 10
-2.758434812412222
 20
-2.4280853070644013
 30
0.0
 10
-2.782137534163492
 20
-2.415478330474694
 30
0.0
 10
-2.8061242995961684
 20
-2.402375474433096
 30
0.0
 10
-2.830360288727981
 20
-2.3887462966724127
 30
0.0
 10
-2.854808876188864
 20
-2.374560097493845
 30
0.0
 10
-2.8794315400574595
 20
-2.3597861606207626
 30
0.0
 10
-2.904187761190962
 20
-2.3443940305579596
 30
0.0
 10
-2.9290349195661634
 20
-2.3283538302513267
 30
0.0
 10
-2.953928195742856
 20
-2.311636622246131
 30
0.0
 10
-2.978820487258723
 20
-2.29421481544912
 30
0.0
 10
-3.0036623514583023
 20
-2.276062617929286
 30
0.0
 10
-3.028401987790795
 20
-2.257156533886272
 30
0.0
 10
-3.0529852737826837
 20
-2.2374758999557827
 30
0.0
 10
-3.07735586945832
 20
-2.217003452452395
 30
0.0
 10
-3.101455404683743
 20
-2.195725913098065
 30
0.0
 10
-3.1252237624853816
 20
-2.173634576476937
 30
0.0
 10
-3.148599468632416
 20
-2.150725878228402
 30
0.0
 10
-3.1715201935440804
 20
-2.1270019192772027
 30
0.0
 10
-3.19392336690768
 20
-2.1024709187110213
 30
0.0
 10
-3.2157468984707056
 20
-2.0771475667837733
 30
0.0
 10
-3.2369299907116784
 20
-2.0510532504265764
 30
0.0
 10
-3.257414021115863
 20
-2.0242161269297947
 30
0.0
 10
-3.2771434643632076
 20
-1.996671027232747
 30
0.0
 10
-3.2960668187324016
 20
-1.9684591783418746
 30
0.0
 10
-3.3141374972547277
 20
-1.9396277442854881
 30
0.0
 10
-3.331314643255845
 20
-1.9102291958928959
 30
0.0
 10
-3.3475638322493815
 20
-1.880320530527305
 30
0.0
 10
-3.3628576276557953
 20
-1.8499623725899268
 30
0.0
 10
-3.3771759660720737
 20
-1.8192179931096986
 30
0.0
 10
-3.390506358012794
 20
-1.7881522912434988
 30
0.0
 10
-3.4028439011390135
 20
-1.7568307816017348
 30
0.0
 10
-3.4141911138601024
 20
-1.7253186289784883
 30
0.0
 10
-3.424557606789077
 20
-1.6936797667069918
 30
0.0
 10
-3.433959617034984
 20
-1.6619761272145097
 30
0.0
 10
-3.442419435228273
 20
-1.6302670043435852
 30
0.0
 10
-3.4499647573517507
 20
-1.5986085576175701
 30
0.0
 10
-3.456627993069338
 20
-1.567053459743986
 30
0.0
 10
-3.4624455597341464
 20
-1.5356506809650028
 30
0.0
 10
-3.467457187194309
 20
-1.5044453978303693
 30
0.0
 10
-3.4717052535235635
 20
-1.4734790097787613
 30
0.0
 10
-3.4752341664727
 20
-1.4427892445409547
 30
0.0
 10
-3.4780898002572385
 20
-1.4124103326244064
 30
0.0
 10
-3.4803189926273133
 20
-1.3823732316987458
 30
0.0
 10
-3.4819691032334186
 20
-1.3527058832269474
 30
0.0
 10
-3.4830876312095542
 20
-1.323433485827843
 30
0.0
 10
-3.4837218876478357
 20
-1.2945787723064255
 30
0.0
 10
-3.4839187171707655
 20
-1.2661622797939225
 30
0.0
 10
-3.4837242620111586
 20
-1.2382026048158394
 30
0.0
 10
-3.483183761758994
 20
-1.210716637225909
 30
0.0
 10
-3.48234138210184
 20
-1.1837197687388588
 30
0.0
 10
-3.4812400663544025
 20
-1.1572260732371518
 30
0.0
 10
-3.479921404245627
 20
-1.1312484571243762
 30
0.0
 10
-3.4784255132306767
 20
-1.1057987787783794
 30
0.0
 10
-3.4767909284639362
 20
-1.0808879366658841
 30
0.0
 10
-3.475054498469927
 20
-1.0565259259673148
 30
0.0
 10
-3.473251284459477
 20
-1.0327218636840592
 30
0.0
 10
-3.471414462148464
 20
-1.0094839822161146
 30
0.0
 10
-3.4695752258430534
 20
-0.9868195913657226
 30
0.0
 10
-3.467762695460303
 20
-0.964735008699143
 30
0.0
 10
-3.466003828056984
 20
-0.9432354582423619
 30
0.0
 10
-3.464323336339478
 20
-0.9223249376544677
 30
0.0
 10
-3.462743617511724
 20
-0.9020060543697705
 30
0.0
 10
-3.4612846966632276
 20
-0.882279831779128
 30
0.0
 10
-3.459964189665305
 20
-0.8631454873763011
 30
0.0
 10
-3.4587972911744265
 20
-0.8446001859585874
 30
0.0
 10
-3.45779679376064
 20
-0.826638772454363
 30
0.0
 10
-3.4569731442938467
 20
-0.8092534907361197
 30
0.0
 10
-3.4563345434264576
 20
-0.7924336968097128
 30
0.0
 10
-3.455887093201048
 20
-0.776165576945879
 30
0.0
 10
-3.45563499639134
 20
-0.7604318834787703
 30
0.0
 10
-3.455580809092057
 20
-0.7452117029265029
 30
0.0
 10
-3.4557257452991426
 20
-0.7304802725265066
 30
0.0
 10
-3.456070028836236
 20
-0.7162088619359754
 30
0.0
 10
-3.4566132841507673
 20
-0.7023647364322538
 30
0.0
 10
-3.457354953494276
 20
-0.6889112162189575
 30
0.0
 10
-3.4582947241839768
 20
-0.675807843247562
 30
0.0
 10
-3.459432946454744
 20
-0.6630106622990387
 30
0.0
 10
-3.4607710203118542
 20
-0.6504726171120412
 30
0.0
 10
-3.462311729198984
 20
-0.6381440554734887
 30
0.0
 10
-3.4640594994965457
 20
-0.6259733299650079
 30
0.0
 10
-3.466020567967173
 20
-0.6139074741786132
 30
0.0
 10
-3.4682030441377956
 20
-0.6018929284128898
 30
0.0
 10
-3.4706168608780206
 20
-0.5898762848106052
 30
0.0
 10
-3.473273613520272
 20
-0.5778050200999688
 30
0.0
 10
-3.4761862950547924
 20
-0.5656281847986167
 30
0.0
 10
-3.479368941480318
 20
-0.5532970208689739
 30
0.0
 10
-3.482836206641376
 20
-0.5407654850216721
 30
0.0
 10
-3.486602889357958
 20
-0.5279906615538169
 30
0.0
 10
-3.490683437116597
 20
-0.5149330560492927
 30
0.0
 10
-3.4950914500652566
 20
-0.5015567686965264
 30
0.0
 10
-3.4998392067896353
 20
-0.48782955271691103
 30
0.0
 10
-3.5049372297645847
 20
-0.4737227689266672
 30
0.0
 10
-3.5103939039773464
 20
-0.45921125146702463
 30
0.0
 10
-3.5162151575222427
 20
-0.4442731021337556
 30
0.0
 10
-3.5224042084208333
 20
-0.4288894316052885
 30
0.0
 10
-3.5289613778769047
 20
-0.413044065432043
 30
0.0
 10
-3.5358839668555673
 20
-0.39672323121306324
 30
0.0
 10
-3.5431661903866596
 20
-0.3799152412797006
 30
0.0
 10
-3.5507991623355
 20
-0.3626101827451103
 30
0.0
 10
-3.55877092248703
 20
-0.34479962423122623
 30
0.0
 10
-3.567066497532563
 20
-0.3264763461598353
 30
0.0
 10
-3.5756679877904225
 20
-0.30763409933536856
 30
0.0
 10
-3.584554672093268
 20
-0.2882673947386689
 30
0.0
 10
-3.5937031241076762
 20
-0.2683713260279022
 30
0.0
 10
-3.603087334312449
 20
-0.24794142520315043
 30
0.0
 10
-3.6126788328714063
 20
-0.2269735512056326
 30
0.0
 10
-3.622446809641604
 20
-0.20546381084651094
 30
0.0
 10
-3.632358228527853
 20
-0.18340851134036368
 30
0.0
 10
-3.642377934317958
 20
-0.16080414379800156
 30
0.0
 10
-3.652468751012958
 20
-0.13764739725603486
 30
0.0
 10
-3.662591571516544
 20
-0.1139352031303041
 30
0.0
 10
-3.6727054393865672
 20
-0.08966481032386484
 30
0.0
 10
-3.6827676242009058
 20
-0.06483389154255355
 30
0.0
 10
-3.6927336929694285
 20
-0.039440681618724605
 30
0.0
 10
-3.702557580946866
 20
-0.01348414875907253
 30
0.0
 10
-3.7121916661726924
 20
0.013035800443375727
 30
0.0
 10
-3.7215868530730227
 20
0.040118081721262445
 30
0.0
 10
-3.7306926714776867
 20
0.06776015969961144
 30
0.0
 10
-3.7394573983820245
 20
0.0959577414617955
 30
0.0
 10
-3.7478282106391467
 20
0.12470443969216702
 30
0.0
 10
-3.755751377399585
 20
0.15399140985135473
 30
0.0
 10
-3.7631725013875488
 20
0.183806968161199
 30
0.0
 10
-3.770036817862224
 20
0.21413619988971905
 30
0.0
 10
-3.776289559192474
 20
0.24496057042423025
 30
0.0
 10
-3.7818763912157025
 20
0.2762575547226325
 30
0.0
 10
-3.786743924831102
 20
0.30800030368149195
 30
0.0
 10
-3.790840302531488
 20
0.3401573684217592
 30
0.0
 10
-3.794115854845672
 20
0.3726925050794194
 30
0.0
 10
-3.7965238161115358
 20
0.4055645829834822
 30
0.0
 10
-3.798021082953134
 20
0.43872761772227076
 30
0.0
 10
-3.7985689927701327
 20
0.4721309472466939
 30
0.0
 10
-3.79813409407785
 20
0.5057195637110916
 30
0.0
 10
-3.796688876347842
 20
0.5394346063128902
 30
0.0
 10
-3.794212424771175
 20
0.5732140113439002
 30
0.0
 10
-3.7906909656585968
 20
0.6069933056682504
 30
0.0
 10
-3.786118271334829
 20
0.640706519788344
 30
0.0
 10
-3.780495899389147
 20
0.6742871875775088
 30
0.0
 10
-3.773833249654061
 20
0.707669392669188
 30
0.0
 10
-3.766147432589325
 20
0.7407888172544514
 30
0.0
 10
-3.757462953866797
 20
0.7735837482062142
 30
0.0
 10
-3.747811230763979
 20
0.8059959981620826
 30
0.0
 10
-3.7372299653904633
 20
0.8379717051694142
 30
0.0
 10
-3.725762406893236
 20
0.8694619830409683
 30
0.0
 10
-3.7134565390323946
 20
0.9004234047292295
 30
0.0
 10
-3.700364230688375
 20
0.9308183117159008
 30
0.0
 10
-3.686540385132008
 20
0.9606149525857928
 30
0.0
 10
-3.6720421197487956
 20
0.9897874627421979
 30
0.0
 10
-3.656928002049833
 20
1.0183157040260802
 30
0.0
 10
-3.6412573609975243
 20
1.0461849875318519
 30
0.0
 10
-3.625089685664223
 20
1.0733857051654225
 30
0.0
 10
-3.6084841166484627
 20
1.0999128956965718
 30
0.0
 10
-3.591499029947904
 20
1.1257657696049943
 30
0.0
 10
-3.574191708399782
 20
1.150947214370286
 30
0.0
 10
-3.556618092445965
 20
1.175463298479216
 30
0.0
 10
-3.53883259982152
 20
1.1993227887393272
 30
0.0
 10
-3.5208880026670046
 20
1.222536691838964
 30
0.0
 10
-3.502835350334664
 20
1.2451178277288653
 30
0.0
 10
-3.484723926584754
 20
1.2670804394816622
 30
0.0
 10
-3.466601230747264
 20
1.288439841892934
 30
0.0
 10
-3.4485129735742714
 20
1.3092121092424074
 30
0.0
 10
-3.430503079783643
 20
1.329413801311336
 30
0.0
 10
-3.412613690584788
 20
1.3490617259002726
 30
0.0
 10
-3.39488516070793
 20
1.3681727356429216
 30
0.0
 10
-3.377356045584758
 20
1.3867635567948993
 30
0.0
 10
-3.3600630753348804
 20
1.4048506478202825
 30
0.0
 10
-3.343041113098854
 20
1.4224500859397753
 30
0.0
 10
-3.326323096045455
 20
1.4395774802828532
 30
0.0
 10
-3.309939958093632
 20
1.4562479108524846
 30
0.0
 10
-3.2939205340655797
 20
1.4724758931167614
 30
0.0
 10
-3.2782914456628296
 20
1.4882753686445231
 30
0.0
 10
-3.2630769703714613
 20
1.5036597227575277
 30
0.0
 10
-3.2482988951897283
 20
1.5186418306351472
 30
0.0
 10
-3.233976357959786
 20
1.5332341336283433
 30
0.0
 10
-3.2201256800910065
 20
1.547448747664927
 30
0.0
 10
-3.206760195587159
 20
1.5612976054971022
 30
0.0
 10
-3.193890082512019
 20
1.5747926340955785
 30
0.0
 10
-3.181522204301226
 20
1.5879459676722578
 30
0.0
 10
-3.1696599695733063
 20
1.6007701955688458
 30
0.0
 10
-3.1583032201981425
 20
1.6132786425525538
 30
0.0
 10
-3.1474481582001226
 20
1.6254856769210075
 30
0.0
 10
-3.1370873224359532
 20
1.6374070392883018
 30
0.0
 10
-3.127209625706414
 20
1.6490601821213526
 30
0.0
 10
-3.11780046186198
 20
1.6604646072053928
 30
0.0
 10
-3.108841890403241
 20
1.6716421854999133
 30
0.0
 10
-3.10031290298895
 20
1.6826174416240312
 30
0.0
 10
-3.0921897721842537
 20
1.6934177838408415
 30
0.0
 10
-3.084446477877835
 20
1.7040736602503876
 30
0.0
 10
-3.077055201386269
 20
1.7146186232448573
 30
0.0
 10
-3.0699868717996357
 20
1.7250892873040997
 30
0.0
 10
-3.0632117441575657
 20
1.7355251699128285
 30
0.0
 10
-3.056699985166648
 20
1.7459684115457463
 30
0.0
 10
-3.050422239915328
 20
1.7564633778537455
 30
0.0
 10
-3.0443501528061097
 20
1.7670561547624717
 30
0.0
 10
-3.0384568178814217
 20
1.7777939544153019
 30
0.0
 10
-3.0327171377759816
 20
1.7887244559937368
 30
0.0
 10
-3.0271080763220772
 20
1.7998951097654685
 30
0.0
 10
-3.0216087967773886
 20
1.8113524347872836
 30
0.0
 10
-3.0162006850139678
 20
1.823141340343024
 30
0.0
 10
-3.0108672640493914
 20
1.8353044985419689
 30
0.0
 10
-3.005594012349339
 20
1.8478817909250123
 30
0.0
 10
-3.0003681028889804
 20
1.8609098460047804
 30
0.0
 10
-2.995178082758322
 20
1.874421678080321
 30
0.0
 10
-2.9900135140983024
 20
1.8884464310881899
 30
0.0
 10
-2.9848645965280687
 20
1.903009225258053
 30
0.0
 10
-2.9797217892879457
 20
1.9181310993553193
 30
0.0
 10
-2.9745754484740767
 20
1.9338290375602123
 30
0.0
 10
-2.9694154913928363
 20
1.950116067622464
 30
0.0
 10
-2.9642310965903027
 20
1.9670014157681894
 30
0.0
 10
-2.959010444816585
 20
1.9844907037438488
 30
0.0
 10
-2.953740503280766
 20
2.002586174125208
 30
0.0
 10
-2.9484068531660523
 20
2.0212869313445077
 30
0.0
 10
-2.942993558555627
 20
2.040589187556682
 30
0.0
 10
-2.9374830736583237
 20
2.0604865042708846
 30
0.0
 10
-2.9318561844690545
 20
2.080970022455585
 30
0.0
 10
-2.92609198067928
 20
2.1020286754713253
 30
0.0
 10
-2.920167853686058
 20
2.1236493806247303
 30
0.0
 10
-2.914059516855126
 20
2.1458172063384557
 30
0.0
 10
-2.9077410447030165
 20
2.1685155128918834
 30
0.0
 10
-2.9011849283163174
 20
2.191726065425265
 30
0.0
 10
-2.8943621450765167
 20
2.215429118451093
 30
0.0
 10
-2.8872422415707204
 20
2.23960347152414
 30
0.0
 10
-2.8797934294163925
 20
2.2642264960374647
 30
0.0
 10
-2.871982694590581
 20
2.289274133389039
 30
0.0
 10
-2.863775921714082
 20
2.3147208650566777
 30
0.0
 10
-2.8551380355770895
 20
2.3405396554842586
 30
0.0
 10
-2.8460331629819877
 20
2.3667018691697304
 30
0.0
 10
-2.836424818685463
 20
2.3931771640063606
 30
0.0
 10
-2.8262761198017374
 20
2.4199333638025293
 30
0.0
 10
-2.8155500334209242
 20
2.446936314023946
 30
0.0
 10
-2.8042096623267434
 20
2.474149726177711
 30
0.0
 10
-2.792218573478006
 20
2.501535017880357
 30
0.0
 10
-2.7795411732499105
 20
2.5290511574784333
 30
0.0
 10
-2.7661431322148613
 20
2.556654524037081
 30
0.0
 10
-2.7519918603891376
 20
2.5842987954472565
 30
0.0
 10
-2.7370570313194555
 20
2.6119348791429866
 30
0.0
 10
-2.7213111501202802
 20
2.639510901230164
 30
0.0
 10
-2.704730156657893
 20
2.6669722704349637
 30
0.0
 10
-2.6872940506659773
 20
2.6942618328872463
 30
0.0
 10
-2.6689875209364105
 20
2.721320132084449
 30
0.0
 10
-2.6498005562410736
 20
2.748085785214731
 30
0.0
 10
-2.629729011791815
 20
2.77449598225038
 30
0.0
 10
-2.608775102387437
 20
2.8004871079145013
 30
0.0
 10
-2.5869477924826483
 20
2.8259954790488644
 30
0.0
 10
-2.5642630547184795
 20
2.8509581815646086
 30
0.0
 10
-2.540743972275602
 20
2.8753139827504826
 30
0.0
 10
-2.5164206667896356
 20
2.899004287097689
 30
0.0
 10
-2.491330042217247
 20
2.921974097878544
 30
0.0
 10
-2.465515345347442
 20
2.9441729432980224
 30
0.0
 10
-2.4390255547095383
 20
2.9655557257112246
 30
0.0
 10
-2.4119146203542896
 20
2.986083455409256
 30
0.0
 10
-2.384240586262882
 20
3.005723836659455
 30
0.0
 10
-2.3560646339947477
 20
3.024451682475667
 30
0.0
 10
-2.3274500899317045
 20
3.0422491450963043
 30
0.0
 10
-2.298461438817098
 20
3.059105760272423
 30
0.0
 10
-2.269163383349866
 20
3.0750183140991787
 30
0.0
 10
-2.239619983882066
 20
3.089990550277884
 30
0.0
 10
-2.209893904569729
 20
3.104032742651618
 30
0.0
 10
-2.1800457835660088
 20
3.1171611622245585
 30
0.0
 10
-2.1501337359463477
 20
3.1293974696049536
 30
0.0
 10
-2.120212989816083
 20
3.140768063149076
 30
0.0
 10
-2.090335649067483
 20
3.151303410484395
 30
0.0
 10
-2.060550570878796
 20
3.1610373871251136
 30
0.0
 10
-2.030903342405244
 20
3.1700066411516294
 30
0.0
 10
-2.0014363391265326
 20
3.178249997944447
 30
0.0
 10
-1.9721888467740476
 20
3.185807914177254
 30
0.0
 10
-1.9431972293678894
 20
3.192721985994353
 30
0.0
 10
-1.9144951273264068
 20
3.199034512712218
 30
0.0
 10
-1.8861136715570541
 20
3.204788114572698
 30
0.0
 10
-1.8580817016284752
 20
3.210025401030982
 30
0.0
 10
-1.8304259783416221
 20
3.2147886847210025
 30
0.0
 10
-1.8031713831070901
 20
3.2191197355064074
 30
0.0
 10
-1.7763410983926238
 20
3.223059568783895
 30
0.0
 10
-1.749956765074201
 20
3.226648262346729
 30
0.0
 10
-1.7240386137888295
 20
3.229924796537748
 30
0.0
 10
-1.6986055683566654
 20
3.232926913038899
 30
0.0
 10
-1.6736753200449408
 20
3.235690988390274
 30
0.0
 10
-1.649264371928537
 20
3.23825191915659
 30
0.0
 10
-1.6253880529122058
 20
3.2406430165278786
 30
0.0
 10
-1.6020605011718125
 20
3.242895909031718
 30
0.0
 10
-1.5792946169033015
 20
3.245040452932715
 30
0.0
 10
-1.5571019843951523
 20
3.2471046507913504
 30
0.0
 10
-1.535492763620695
 20
3.2491145795409913
 30
0.0
 10
-1.5144755518363597
 20
3.2510943303059214
 30
0.0
 10
-1.4940572161248316
 20
3.253065963006631
 30
0.0
 10
-1.4742426984862587
 20
3.255049479550887
 30
0.0
 10
-1.4550347959962975
 20
3.2570628200481155
 30
0.0
 10
-1.4364339197421419
 20
3.259121886951086
 30
0.0
 10
-1.4184378377209312
 20
3.261240602250172
 30
0.0
 10
-1.4010414086139977
 20
3.2634310027346998
 30
0.0
 10
-1.3842363152714425
 20
3.2657033778001026
 30
0.0
 10
-1.3680108087442502
 20
3.2680664532294594
 30
0.0
 10
-1.3523494756259304
 20
3.270527622741154
 30
0.0
 10
-1.3372330430994945
 20
3.2730932268359374
 30
0.0
 10
-1.3226382371784822
 20
3.2757688756179792
 30
0.0
 10
-1.308537709907304
 20
3.2785598089049772
 30
0.0
 10
-1.2949000504838202
 20
3.281471283273251
 30
0.0
 10
-1.2816898931739908
 20
3.2845089719927474
 30
0.0
 10
-1.2688681313917953
 20
3.2876793604674157
 30
0.0
 10
-1.2563922424515308
 20
3.2909901172346685
 30
0.0
 10
-1.2442167214766122
 20
3.294450419223666
 30
0.0
 10
-1.2322936161735654
 20
3.2980712101913308
 30
0.0
 10
-1.220573147224868
 20
3.301865373278364
 30
0.0
 10
-1.2090043926068688
 20
3.305847802487398
 30
0.0
 10
-1.1975360089097562
 20
3.3100353633801487
 30
0.0
 10
-1.1861169593567988
 20
3.3144467399824133
 30
0.0
 10
-1.1746972171344545
 20
3.3191021721477783
 30
0.0
 10
-1.1632284140348643
 20
3.3240230947271643
 30
0.0
 10
-1.1516644081550074
 20
3.32923169608699
 30
0.0
 10
-1.1399617500846064
 20
3.334750418189305
 30
0.0
 10
-1.1280800340154338
 20
3.3406014231719294
 30
0.0
 10
-1.1159821277662518
 20
3.346806051980146
 30
0.0
 10
-1.1036342830807653
 20
3.3533842992028084
 30
0.0
 10
-1.0910061340612498
 20
3.360354325179234
 30
0.0
 10
-1.07807059676577
 20
3.367732022148143
 30
0.0
 10
-1.0648036865555992
 20
3.3755306462552985
 30
0.0
 10
-1.0511842716796285
 20
3.3837605221567393
 30
0.0
 10
-1.037193781956015
 20
3.392428822204125
 30
0.0
 10
-1.0228158905167182
 20
3.4015394181118928
 30
0.0
 10
-1.0080361847501567
 20
3.4110927997809646
 30
0.0
 10
-0.9928418401567485
 20
3.421086053661535
 30
0.0
 10
-0.9772213081418561
 20
3.4315128916460402
 30
0.0
 10
-0.9611640260781232
 20
3.4423637208847593
 30
0.0
 10
-0.9446601554720134
 20
3.4536257449637144
 30
0.0
 10
-0.9277003519013577
 20
3.4652830874125167
 30
0.0
 10
-0.9102755686206204
 20
3.477316929363535
 30
0.0
 10
-0.8923768943816193
 20
3.4897056542250646
 30
0.0
 10
-0.8739954250747315
 20
3.5024249933519114
 30
0.0
 10
-0.8551221682202331
 20
3.5154481678180405
 30
0.0
 10
-0.8357479790816494
 20
3.5287460224661307
 30
0.0
 10
-0.8158635271731361
 20
3.5422871494036303
 30
0.0
 10
-0.7954592921351834
 20
3.5560379990273563
 30
0.0
 10
-0.7745255882996062
 20
3.5699629775003436
 30
0.0
 10
-0.7530526177042844
 20
3.5840245303950504
 30
0.0
 10
-0.7310305517990175
 20
3.5981832129847424
 30
0.0
 10
-0.708449642557632
 20
3.612397748439578
 30
0.0
 10
-0.6853003641274976
 20
3.626625075995106
 30
0.0
 10
-0.6615735864535772
 20
3.6408203920339974
 30
0.0
 10
-0.6372607824533765
 20
3.654937187972588
 30
0.0
 10
-0.6123542702304171
 20
3.668927289877512
 30
0.0
 10
-0.5868474914320333
 20
3.6827409058403187
 30
0.0
 10
-0.5607353261167203
 20
3.6963266882752075
 30
0.0
 10
-0.5340144433349497
 20
3.7096318194146765
 30
0.0
 10
-0.5066836849956915
 20
3.7226021292679383
 30
0.0
 10
-0.4787444784630754
 20
3.7351822560526426
 30
0.0
 10
-0.4502012707148619
 20
3.747315859456752
 30
0.0
 10
-0.42106197386035066
 20
3.7589458968559293
 30
0.0
 10
-0.39133840849390045
 20
3.7700149716146347
 30
0.0
 10
-0.36104672796269666
 20
3.780465760660108
 30
0.0
 10
-0.33020780345436984
 20
3.7902415255107487
 30
0.0
 10
-0.2988475472339786
 20
3.799286706785245
 30
0.0
 10
-0.2669971498216176
 20
3.807547597079319
 30
0.0
 10
-0.23469320680559722
 20
3.8149730808059363
 30
0.0
 10
-0.2019777128665239
 20
3.821515423976035
 30
0.0
 10
-0.16889790417579864
 20
3.827131087060398
 30
0.0
 10
-0.13550593772205485
 20
3.8317815411811877
 30
0.0
 10
-0.1018583994981254
 20
3.8354340155817015
 30
0.0
 10
-0.056697640537039976
 20
3.8389412539358867
 30
0.0
 10
-0.02269033527788539
 20
3.8400004399364
 30
0.0
 10
0.0
 20
3.84
 30
0.0
  0
CIRCLE
  5
30
330
17
100
AcDbEntity
  8
Separator_Outer
 62
3
100
AcDbCircle
 10
0.0
 20
0.0
 30
0.0
 40
3.456
  0
CIRCLE
  5
31
330
17
100
AcDbEntity
  8
Separator_Inner
 62
3
100
AcDbCircle
 10
0.0
 20
0.0
 30
0.0
 40
3.1039999999999996
  0
CIRCLE
  5
32
330
17
100
AcDbEntity
  8
Rollers
 62
2
100
AcDbCircle
 10
0.0
 20
3.44
 30
0.0
 40
0.4
  0
CIRCLE
  5
33
330
17
100
AcDbEntity
  8
Rollers
 62
2
100
AcDbCircle
 10
2.397930111112067
 20
2.397930111112067
 30
0.0
 40
0.4
  0
CIRCLE
  5
34
330
17
100
AcDbEntity
  8
Rollers
 62
2
100
AcDbCircle
 10
3.2760952367109226
 20
2.0060297726699608e-16
 30
0.0
 40
0.4
  0
CIRCLE
  5
35
330
17
100
AcDbEntity
  8
Rollers
 62
2
100
AcDbCircle
 10
2.237930111112067
 20
-2.2379301111120666
 30
0.0
 40
0.4
  0
CIRCLE
  5
36
330
17
100
AcDbEntity
  8
Rollers
 62
2
100
AcDbCircle
 10
3.8208980133397414e-16
 20
-3.1199999999999997
 30
0.0
 40
0.4
  0
CIRCLE
  5
37
330
17
100
AcDbEntity
  8
Rollers
 62
2
100
AcDbCircle
 10
-2.2379301111120666
 20
-2.2379301111120675
 30
0.0
 40
0.4
  0
CIRCLE
  5
38
330
17
100
AcDbEntity
  8
Rollers
 62
2
100
AcDbCircle
 10
-3.276095236710922
 20
-6.018089318009882e-16
 30
0.0
 40
0.4
  0
CIRCLE
  5
39
330
17
100
AcDbEntity
  8
Rollers
 62
2
100
AcDbCircle
 10
-2.3979301111120677
 20
2.3979301111120663
 30
0.0
 40
0.4
  0
CIRCLE
  5
3A
330
17
100
AcDbEntity
  8
Wave_Generator
 62
1
100
AcDbCircle
 10
0.0
 20
0.16000000000000003
 30
0.0
 40
2.88
  0
CIRCLE
  5
3B
330
17
100
AcDbEntity
  8
Input_Shaft
 62
6
100
AcDbCircle
 10
0.0
 20
0.0
 30
0.0
 40
0.5
  0
ENDSEC
  0
SECTION
  2
OBJECTS
  0
DICTIONARY
  5
A
330
0
100
AcDbDictionary
281
1
  3
ACAD_COLOR
350
B
  3
ACAD_GROUP
350
C
  3
ACAD_LAYOUT
350
D
  3
ACAD_MATERIAL
350
E
  3
ACAD_MLEADERSTYLE
350
F
  3
ACAD_MLINESTYLE
350
10
  3
ACAD_PLOTSETTINGS
350
11
  3
ACAD_PLOTSTYLENAME
350
12
  3
ACAD_SCALELIST
350
14
  3
ACAD_TABLESTYLE
350
15
  3
ACAD_VISUALSTYLE
350
16
  3
EZDXF_META
350
2D
  0
DICTIONARY
  5
B
330
A
100
AcDbDictionary
281
1
  0
DICTIONARY
  5
C
330
A
100
AcDbDictionary
281
1
  0
DICTIONARY
  5
D
330
A
100
AcDbDictionary
281
1
  3
Model
350
1A
  3
Layout1
350
1E
  0
DICTIONARY
  5
E
330
A
100
AcDbDictionary
281
1
  3
ByBlock
350
1F
  3
ByLayer
350
20
  3
Global
350
21
  0
DICTIONARY
  5
F
330
A
100
AcDbDictionary
281
1
  3
Standard
350
2C
  0
DICTIONARY
  5
10
330
A
100
AcDbDictionary
281
1
  3
Standard
350
22
  0
DICTIONARY
  5
11
330
A
100
AcDbDictionary
281
1
  0
ACDBDICTIONARYWDFLT
  5
12
330
A
100
AcDbDictionary
281
1
  3
Normal
350
13
100
AcDbDictionaryWithDefault
340
13
  0
ACDBPLACEHOLDER
  5
13
330
12
  0
DICTIONARY
  5
14
330
A
100
AcDbDictionary
281
1
  0
DICTIONARY
  5
15
330
A
100
AcDbDictionary
281
1
  0
DICTIONARY
  5
16
330
A
100
AcDbDictionary
281
1
  0
LAYOUT
  5
1A
330
D
100
AcDbPlotSettings
  1

  4
A3
  6

 40
7.5
 41
20.0
 42
7.5
 43
20.0
 44
420.0
 45
297.0
 46
0.0
 47
0.0
 48
0.0
 49
0.0
140
0.0
141
0.0
142
1.0
143
1.0
 70
1024
 72
1
 73
0
 74
5
  7

 75
16
 76
0
 77
2
 78
300
147
1.0
148
0.0
149
0.0
100
AcDbLayout
  1
Model
 70
1
 71
0
 10
0.0
 20
0.0
 11
420.0
 21
297.0
 12
0.0
 22
0.0
 32
0.0
 14
1e+20
 24
1e+20
 34
1e+20
 15
-1e+20
 25
-1e+20
 35
-1e+20
146
0.0
 13
0.0
 23
0.0
 33
0.0
 16
1.0
 26
0.0
 36
0.0
 17
0.0
 27
1.0
 37
0.0
 76
1
330
17
  0
LAYOUT
  5
1E
330
D
100
AcDbPlotSettings
  1

  4
A3
  6

 40
7.5
 41
20.0
 42
7.5
 43
20.0
 44
420.0
 45
297.0
 46
0.0
 47
0.0
 48
0.0
 49
0.0
140
0.0
141
0.0
142
1.0
143
1.0
 70
0
 72
1
 73
0
 74
5
  7

 75
16
 76
0
 77
2
 78
300
147
1.0
148
0.0
149
0.0
100
AcDbLayout
  1
Layout1
 70
1
 71
1
 10
0.0
 20
0.0
 11
420.0
 21
297.0
 12
0.0
 22
0.0
 32
0.0
 14
1e+20
 24
1e+20
 34
1e+20
 15
-1e+20
 25
-1e+20
 35
-1e+20
146
0.0
 13
0.0
 23
0.0
 33
0.0
 16
1.0
 26
0.0
 36
0.0
 17
0.0
 27
1.0
 37
0.0
 76
1
330
1B
  0
MATERIAL
  5
1F
102
{ACAD_REACTORS
330
E
102
}
330
E
100
AcDbMaterial
  1
ByBlock
  2

 70
0
 40
1.0
 71
1
 41
1.0
 91
-1023410177
 42
1.0
 72
1
  3

 73
1
 74
1
 75
1
 44
0.5
 73
0
 45
1.0
 46
1.0
 77
1
  4

 78
1
 79
1
170
1
 48
1.0
171
1
  6

172
1
173
1
174
1
140
1.0
141
1.0
175
1
  7

176
1
177
1
178
1
143
1.0
179
1
  8

270
1
271
1
272
1
145
1.0
146
1.0
273
1
  9

274
1
275
1
276
1
 42
1.0
 72
1
  3

 73
1
 74
1
 75
1
 94
63
  0
MATERIAL
  5
20
102
{ACAD_REACTORS
330
E
102
}
330
E
100
AcDbMaterial
  1
ByLayer
  2

 70
0
 40
1.0
 71
1
 41
1.0
 91
-1023410177
 42
1.0
 72
1
  3

 73
1
 74
1
 75
1
 44
0.5
 73
0
 45
1.0
 46
1.0
 77
1
  4

 78
1
 79
1
170
1
 48
1.0
171
1
  6

172
1
173
1
174
1
140
1.0
141
1.0
175
1
  7

176
1
177
1
178
1
143
1.0
179
1
  8

270
1
271
1
272
1
145
1.0
146
1.0
273
1
  9

274
1
275
1
276
1
 42
1.0
 72
1
  3

 73
1
 74
1
 75
1
 94
63
  0
MATERIAL
  5
21
102
{ACAD_REACTORS
330
E
102
}
330
E
100
AcDbMaterial
  1
Global
  2

 70
0
 40
1.0
 71
1
 41
1.0
 91
-1023410177
 42
1.0
 72
1
  3

 73
1
 74
1
 75
1
 44
0.5
 73
0
 45
1.0
 46
1.0
 77
1
  4

 78
1
 79
1
170
1
 48
1.0
171
1
  6

172
1
173
1
174
1
140
1.0
141
1.0
175
1
  7

176
1
177
1
178
1
143
1.0
179
1
  8

270
1
271
1
272
1
145
1.0
146
1.0
273
1
  9

274
1
275
1
276
1
 42
1.0
 72
1
  3

 73
1
 74
1
 75
1
 94
63
  0
MLINESTYLE
  5
22
102
{ACAD_REACTORS
330
10
102
}
330
10
100
AcDbMlineStyle
  2
Standard
 70
0
  3

 62
256
 51
90.0
 52
90.0
 71
2
 49
0.5
 62
256
  6
BYLAYER
 49
-0.5
 62
256
  6
BYLAYER
  0
MLEADERSTYLE
  5
2C
102
{ACAD_REACTORS
330
F
102
}
330
F
100
AcDbMLeaderStyle
179
2
170
2
171
1
172
0
 90
2
 40
0.0
 41
0.0
173
1
 91
-1056964608
 92
-2
290
1
 42
2.0
291
1
 43
8.0
  3
Standard
 44
4.0
300

342
29
174
1
175
1
176
0
178
1
 93
-1056964608
 45
4.0
292
0
297
0
 46
4.0
 94
-1056964608
 47
1.0
 49
1.0
140
1.0
294
1
141
0.0
177
0
142
1.0
295
0
296
0
143
3.75
271
0
272
9
273
9
  0
DICTIONARY
  5
2D
330
A
100
AcDbDictionary
280
1
281
1
  3
CREATED_BY_EZDXF
350
2E
  3
WRITTEN_BY_EZDXF
350
3E
  0
DICTIONARYVAR
  5
2E
330
2D
100
DictionaryVariables
280
0
  1
1.4.3 @ 2025-11-01T03:54:54.665868+00:00
  0
DICTIONARYVAR
  5
3E
330
2D
100
DictionaryVariables
280
0
  1
1.4.3 @ 2025-11-01T03:54:54.717901+00:00
  0
ENDSEC
  0
EOF
